<svg width="700" height="399.99999999999994" xmlns="http://www.w3.org/2000/svg" xmlns:xlink="http://www.w3.org/1999/xlink">
 <g>
  <title>background</title>
  <rect fill="none" id="canvas_background" height="402" width="702" y="-1" x="-1"/>
 </g>
 <g>
  <title>Layer 1</title>
  <g id="svg_1">
   <defs transform="translate(-2.857144355773926,2.857144355773926) translate(5.714288711547852,-2.857144355773926) translate(5.714288711547852,-2.857144355773926) translate(71.4286117553711,60.00003433227539) translate(-354.91900634765625,-348.6789855957031) ">
    <rect height="980" width="1260" id="SVGID_1_"/>
   </defs>
   <clipPath transform="translate(-2.857144355773926,2.857144355773926) translate(5.714288711547852,-2.857144355773926) translate(5.714288711547852,-2.857144355773926) translate(71.4286117553711,60.00003433227539) translate(-354.91900634765625,-348.6789855957031) " id="SVGID_2_">
    <use x="-274.918962" y="-291.536096" id="svg_2" xlink:href="#SVGID_1_"/>
   </clipPath>
   <path id="svg_3" d="m357.999038,298.201904c0,-10.012 -6.553,-15.087 -19.479,-15.087l-8.694,0l0,52.005l8.734,0l0,-19.682l13.556,19.682l10.727,0l-15.821,-22.282c6.754,-1.66 10.977,-7.158 10.977,-14.636m-8.734,0.388c0,5.083 -2.995,7.063 -10.681,7.063l-0.024,0l0,-14.191c7.1,0.004 10.705,1.114 10.705,7.128" fill="#78272B" clip-path="url(#SVGID_2_)"/>
   <polygon id="svg_4" points="377.7440824508667,335.1189241409302 406.30603313446045,335.1189241409302 406.30603313446045,326.7729158401489 386.4790678024292,326.7729158401489 386.4790678024292,310.9659090042114 405.7240629196167,310.9659090042114 405.7240629196167,302.6178865432739 386.4790678024292,302.6178865432739 386.4790678024292,291.4618806838989 406.30603313446045,291.4618806838989 406.30603313446045,283.1139192581177 377.7440824508667,283.1139192581177 " fill="#78272B" clip-path="url(#SVGID_2_)"/>
   <path id="svg_5" d="m473.696038,307.332904l-23.555,0l0,8.348l14.351,0c-1.012,7.205 -8.54,11.932 -15.603,11.932c-4.277,0 -9.124,-2.189 -12.641,-5.705c-3.358,-3.419 -5.209,-7.893 -5.209,-12.597c0,-10.304 8.183,-18.688 18.237,-18.688c6.224,0 11.397,2.851 15.377,8.472l1.095,1.548l6.424,-6.002l-0.917,-1.192c-5.622,-7.31 -13.2,-11.172 -21.913,-11.172c-14.908,0 -27.037,12.098 -27.037,26.971c0,14.729 11.983,26.713 26.714,26.713c7.363,0 14.566,-3.257 19.271,-8.712c4.704,-5.454 5.576,-11.257 5.438,-18.292l-0.032,-1.624z" fill="#78272B" clip-path="url(#SVGID_2_)"/>
   <rect id="svg_6" height="52.005" width="8.733" fill="#78272B" clip-path="url(#SVGID_2_)" y="283.114904" x="491.149038"/>
   <polygon id="svg_7" points="557.6690397262573,318.3559236526489 519.6940031051636,278.5718660354614 519.6940031051636,335.1189241409302 528.4280118942261,335.1189241409302 528.4280118942261,300.0678987503052 566.4030485153198,339.7848787307739 566.4030485153198,283.1139192581177 557.6690397262573,283.1139192581177 " fill="#78272B" clip-path="url(#SVGID_2_)"/>
   <path id="svg_8" d="m605.776038,278.292904l-25.031,56.827l9.573,0l5.877,-13.821l18.598,0l5.748,13.821l9.621,0l-24.386,-56.827zm-0.166,21.064l5.672,13.596l-11.479,0l5.807,-13.596z" fill="#78272B" clip-path="url(#SVGID_2_)"/>
   <polygon id="svg_9" points="113.27204418182373,334.8099031448364 117.44904613494873,334.8099031448364 117.44904613494873,283.2029085159302 113.27204418182373,283.2029085159302 113.27204418182373,303.9798860549927 113.27204418182373,304.8648958206177 112.38703441619873,304.8648958206177 85.06104564666748,304.8648958206177 84.17603588104248,304.8648958206177 84.17603588104248,303.9798860549927 84.17603588104248,283.2029085159302 80.0000410079956,283.2029085159302 80.0000410079956,334.8099031448364 84.17603588104248,334.8099031448364 84.17603588104248,309.5019197463989 84.17603588104248,308.6169099807739 85.06104564666748,308.6169099807739 112.38703441619873,308.6169099807739 113.27204418182373,308.6169099807739 113.27204418182373,309.5019197463989 " fill="#242A44" clip-path="url(#SVGID_2_)"/>
   <path id="svg_10" d="m150.947038,319.660904l0.586,0l22.795,0l0.59,0l0.227,0.545l6.074,14.604l4.651,0l-22.667,-52.821l-23.268,52.821l4.571,0l6.212,-14.61l0.229,-0.539zm2.179,-4.985l9.132,-21.38l0.824,-1.927l0.807,1.934l8.919,21.38l0.512,1.226l-1.328,0l-18.052,0l-1.34,0l0.526,-1.233z" fill="#242A44" clip-path="url(#SVGID_2_)"/>
   <path id="svg_11" d="m246.994038,291.939904l0,-4.856c-4.471,-3.229 -9.396,-4.801 -15.043,-4.801c-14.853,0 -26.937,12.083 -26.937,26.937c0,7.053 2.838,13.711 7.99,18.746c5.124,5.008 11.853,7.766 18.947,7.766c5.269,0 10.593,-1.706 15.043,-4.811l0,-4.882c-4.431,3.797 -9.891,5.94 -15.256,5.94c-12.221,0 -22.547,-10.521 -22.547,-22.973c0,-12.452 10.261,-22.972 22.406,-22.972c5.559,0 11.065,2.13 15.397,5.906" fill="#242A44" clip-path="url(#SVGID_2_)"/>
   <polygon id="svg_12" points="279.94507122039795,309.8028841018677 280.5690336227417,310.4999055862427 302.17908000946045,334.6988801956177 307.9960355758667,334.6988801956177 283.43005657196045,307.6498689651489 282.86108684539795,307.0229158401489 283.46203899383545,306.4269075393677 306.9960355758667,283.0929231643677 301.51404094696045,283.0929231643677 279.04907512664795,305.6958894729614 277.5370512008667,307.2188997268677 277.5370512008667,305.0729036331177 277.5370512008667,283.0929231643677 273.3600492477417,283.0929231643677 273.3600492477417,334.6988801956177 277.5370512008667,334.6988801956177 277.5370512008667,312.5758943557739 277.5370512008667,312.2088899612427 277.7960844039917,311.9499177932739 279.28308391571045,310.4638948440552 " fill="#242A44" clip-path="url(#SVGID_2_)"/>
   <path id="svg_13" d="m351.560038,57.142904l-82.639,47.711l0,95.423l82.639,47.712l82.639,-47.712l0,-95.423l-82.639,-47.711zm80.216,141.735l-80.217,46.313l-80.217,-46.313l0,-92.626l80.217,-46.313l80.217,46.313l0,92.626z" fill="#242A44" clip-path="url(#SVGID_2_)"/>
   <path id="svg_14" d="m361.079038,197.111904c0.645,0.127 1.016,0.146 1.344,0.275c0.671,0.264 1.319,0.586 1.977,0.884c-0.303,0.578 -0.604,1.155 -1.083,2.072c2.34,-1.114 4.503,-2.116 6.631,-3.189c0.323,-0.163 0.479,-0.655 0.713,-0.995c-0.345,-0.146 -0.684,-0.402 -1.035,-0.421c-2.853,-0.156 -5.563,0.568 -8.547,1.374" fill="#242A44" clip-path="url(#SVGID_2_)"/>
   <path id="svg_15" d="m321.773038,177.299904l7.401,0c-1.678,-2.517 -3.262,-4.895 -4.949,-7.424c-0.862,2.611 -1.649,4.993 -2.452,7.424" fill="#242A44" clip-path="url(#SVGID_2_)"/>
   <path id="svg_16" d="m333.074038,197.113904c0.692,0.131 1.06,0.155 1.394,0.275c0.65,0.234 1.28,0.522 1.919,0.788c-0.284,0.619 -0.568,1.237 -0.989,2.156c2.325,-1.12 4.523,-2.154 6.688,-3.252c0.284,-0.144 0.399,-0.619 0.593,-0.94c-0.31,-0.137 -0.613,-0.373 -0.93,-0.394c-2.888,-0.192 -5.621,0.562 -8.675,1.367" fill="#242A44" clip-path="url(#SVGID_2_)"/>
   <path id="svg_17" d="m351.609038,163.354904c2.581,-0.042 4.75,-2.239 4.753,-4.813c0.003,-2.589 -2.156,-4.765 -4.748,-4.785c-2.703,-0.02 -4.825,2.08 -4.828,4.778c-0.002,2.68 2.181,4.862 4.823,4.82m-0.074,-7.219c1.328,-0.009 2.483,1.143 2.453,2.446c-0.029,1.256 -1.163,2.378 -2.415,2.391c-1.332,0.013 -2.419,-1.106 -2.403,-2.475c0.015,-1.329 1.041,-2.353 2.365,-2.362" fill="#242A44" clip-path="url(#SVGID_2_)"/>
   <path id="svg_18" d="m347.658038,139.149904c0.451,1.943 2.066,3.25 3.969,3.214c1.755,-0.033 3.39,-1.326 3.792,-2.998c0.521,-2.167 -0.451,-3.757 -3.185,-5.077c1.805,-0.581 2.999,-1.596 3.241,-3.456c0.233,-1.807 -0.59,-3.148 -2.07,-4.129c2.513,-2.122 2.729,-3.834 0.954,-6.61c1.584,-2.308 1.521,-4.415 -0.175,-5.933c-1.456,-1.303 -3.677,-1.331 -5.192,-0.068c-1.741,1.452 -1.831,3.476 -0.5,5.65c-0.352,1.481 -0.971,2.701 -0.812,3.809c0.164,1.147 1.084,2.186 1.722,3.363c-1.205,0.857 -2.079,2.191 -1.781,4.017c0.29,1.781 1.493,2.798 3.207,3.365c-2.641,1.303 -3.633,2.859 -3.17,4.853" fill="#242A44" clip-path="url(#SVGID_2_)"/>
   <path id="svg_19" d="m389.214038,197.496904c1.011,0.41 2.283,0.549 2.893,1.258c0.964,1.122 -0.498,1.835 -0.998,2.696c0.063,0.132 0.125,0.264 0.188,0.396c2.271,-1.446 4.561,-2.868 6.796,-4.368c0.318,-0.214 0.383,-0.809 0.564,-1.227c-0.415,-0.178 -0.823,-0.493 -1.244,-0.512c-2.902,-0.136 -5.563,0.843 -8.199,1.757" fill="#242A44" clip-path="url(#SVGID_2_)"/>
   <path id="svg_20" d="m347.914038,163.567904c-0.298,-0.299 -1.098,-0.238 -1.633,-0.126c-0.614,0.128 -1.241,0.399 -1.756,0.76c-2.137,1.498 -4.234,3.053 -6.344,4.589c-0.299,0.218 -0.588,0.448 -0.962,0.734l0,-21.623c0.639,0.544 1.102,0.99 1.614,1.367c2.164,1.593 4.328,3.186 6.533,4.719c0.287,0.199 0.894,0.195 1.198,0.019c0.191,-0.111 0.203,-0.75 0.105,-1.098c-0.25,-0.885 -0.535,-1.775 -0.936,-2.6c-0.893,-1.842 -1.648,-3.814 -2.879,-5.41c-0.925,-1.199 -0.883,-2.341 -0.886,-3.602c-0.01,-4.949 -0.023,-9.899 0.015,-14.849c0.006,-0.782 -0.234,-1.223 -0.905,-1.622c-4.82,-2.869 -9.878,-5.21 -15.274,-6.749c-6.562,-1.871 -13.215,-2.826 -19.99,-1.26c-6.734,1.557 -11.253,5.476 -12.748,12.423c-0.701,3.26 -0.583,6.552 -0.118,9.837c0.547,3.866 1.575,7.605 2.963,11.339c1.358,-0.636 2.634,-1.235 4.107,-1.925c-0.347,1.459 -0.752,2.644 -0.894,3.859c-0.37,3.179 -0.641,6.371 -0.901,9.561c-0.026,0.318 0.293,0.664 0.452,0.997c0.315,-0.214 0.759,-0.356 0.925,-0.653c0.953,-1.717 1.865,-3.459 2.742,-5.217c0.483,-0.969 0.87,-1.987 1.428,-3.276c2.094,6.357 4.084,12.396 6.118,18.572c-1.463,-0.837 -2.718,-1.713 -4.099,-2.28c-0.763,-0.313 -1.981,-0.458 -2.562,-0.056c-0.889,0.617 -0.396,1.782 0.017,2.646c1.6,3.335 4.227,5.45 7.862,6.133c3.909,0.735 7.068,-0.983 8.477,-4.535c1.074,-2.708 1.308,-5.542 0.866,-8.416c-0.2,-1.299 -1.182,-1.844 -2.271,-1.148c-0.815,0.521 -1.509,1.303 -2.093,2.091c-0.488,0.658 -0.738,1.492 -1.183,2.44c-0.681,-0.387 -1.481,-0.619 -1.94,-1.146c-1.12,-1.289 -2.348,-2.591 -3.053,-4.11c-1.652,-3.557 -0.31,-6.542 3.346,-7.945c1.068,-0.41 2.203,-0.648 3.378,-0.985c-0.227,-0.463 -0.476,-0.874 -0.639,-1.318c-0.674,-1.839 -1.451,-3.654 -1.94,-5.543c-0.411,-1.587 -0.061,-3.145 1.327,-4.249c3.053,-2.427 6.977,-1.16 7.993,2.57c0.115,0.424 0.218,0.861 0.246,1.297c0.123,1.873 0.216,3.748 0.321,5.644c1.313,-0.504 2.616,-1.127 3.987,-1.504c2.732,-0.752 4.823,0.278 5.777,2.939c0.521,1.456 0.822,3.029 0.965,4.573c0.162,1.758 0.037,3.542 0.037,5.307c-1.974,-1.051 -3.718,-2.151 -5.595,-2.932c-2.053,-0.854 -3.106,0.06 -3.364,2.281c-0.531,4.575 5.311,11.313 12.293,10.241c5.097,-0.782 8.177,-4.483 10.08,-9.116c0.193,-0.467 0.11,-1.326 -0.207,-1.645m-32.517,-31.406c-0.329,0.125 -0.669,0.221 -0.996,0.327c-2.046,-4.332 -4.852,-4.008 -8.084,-2.651c-1.688,0.708 -3.244,1.728 -4.979,2.672c-0.422,-0.499 -0.93,-1.1 -1.526,-1.805c3.291,-2.403 6.599,-4.452 10.793,-4.255c2.735,0.128 5.221,2.313 5.986,5.215c-0.391,0.165 -0.788,0.343 -1.194,0.497m18.029,-2.335c-2.366,-1.033 -4.597,-2.142 -6.926,-2.976c-1.447,-0.519 -3.033,-0.705 -4.575,-0.882c-1.127,-0.129 -1.807,0.601 -1.661,1.704c0.223,1.693 0.634,3.361 1.007,5.244c-0.572,0.237 -1.266,0.525 -2.07,0.859c-0.942,-2.075 -1.672,-4.151 -1.523,-6.387c0.171,-2.574 1.743,-4.04 4.351,-4.018c1.385,0.012 2.84,0.206 4.136,0.671c2.853,1.025 5.627,2.274 8.582,3.494c-0.569,0.986 -0.959,1.663 -1.321,2.291" fill="#242A44" clip-path="url(#SVGID_2_)"/>
   <path id="svg_21" d="m346.238038,177.324904l10.638,0c-1.785,-3.572 -3.513,-7.031 -5.326,-10.658c-1.823,3.656 -3.545,7.113 -5.312,10.658" fill="#242A44" clip-path="url(#SVGID_2_)"/>
   <path id="svg_22" d="m313.558038,183.145904c0.132,0.183 0.198,0.398 0.198,0.649c0,0.239 -0.068,0.454 -0.205,0.645c-0.153,0.21 -0.345,0.315 -0.576,0.315c-0.239,0 -0.432,-0.104 -0.579,-0.309c-0.13,-0.184 -0.195,-0.4 -0.195,-0.651c0,-0.254 0.064,-0.471 0.193,-0.649c0.145,-0.2 0.338,-0.301 0.581,-0.301s0.436,0.1 0.583,0.301zm1.729,4.547c0.231,0 0.423,-0.105 0.576,-0.315c0.137,-0.19 0.205,-0.405 0.205,-0.645c0,-0.251 -0.066,-0.467 -0.198,-0.649c-0.146,-0.2 -0.341,-0.301 -0.583,-0.301s-0.436,0.101 -0.581,0.301c-0.128,0.179 -0.193,0.396 -0.193,0.649c0,0.251 0.065,0.468 0.195,0.651c0.146,0.205 0.339,0.309 0.579,0.309zm-2.313,3.062c0.231,0 0.423,-0.105 0.576,-0.315c0.137,-0.19 0.205,-0.405 0.205,-0.645c0,-0.251 -0.066,-0.467 -0.198,-0.649c-0.146,-0.2 -0.341,-0.301 -0.583,-0.301s-0.436,0.101 -0.581,0.301c-0.128,0.179 -0.193,0.396 -0.193,0.649c0,0.251 0.065,0.468 0.195,0.651c0.147,0.206 0.34,0.309 0.579,0.309zm74.875,-4.973c-0.242,0 -0.436,0.101 -0.58,0.301c-0.129,0.179 -0.193,0.396 -0.193,0.649c0,0.251 0.064,0.468 0.195,0.651c0.146,0.205 0.34,0.309 0.578,0.309c0.231,0 0.424,-0.105 0.576,-0.315c0.137,-0.19 0.205,-0.405 0.205,-0.645c0,-0.251 -0.065,-0.467 -0.197,-0.649c-0.147,-0.2 -0.341,-0.301 -0.584,-0.301zm2.562,-2.937c-0.242,0 -0.436,0.101 -0.58,0.301c-0.129,0.179 -0.193,0.396 -0.193,0.649c0,0.251 0.064,0.468 0.195,0.651c0.146,0.205 0.34,0.309 0.578,0.309c0.231,0 0.424,-0.105 0.576,-0.315c0.137,-0.19 0.205,-0.405 0.205,-0.645c0,-0.251 -0.065,-0.467 -0.197,-0.649c-0.146,-0.201 -0.341,-0.301 -0.584,-0.301zm-28.437,2.937c-0.242,0 -0.436,0.101 -0.58,0.301c-0.129,0.179 -0.193,0.396 -0.193,0.649c0,0.251 0.064,0.468 0.195,0.651c0.146,0.205 0.34,0.309 0.578,0.309c0.231,0 0.424,-0.105 0.576,-0.315c0.137,-0.19 0.205,-0.405 0.205,-0.645c0,-0.251 -0.065,-0.467 -0.197,-0.649c-0.147,-0.2 -0.341,-0.301 -0.584,-0.301zm28.437,3.063c-0.242,0 -0.436,0.101 -0.58,0.301c-0.129,0.179 -0.193,0.396 -0.193,0.649c0,0.251 0.064,0.468 0.195,0.651c0.146,0.205 0.34,0.309 0.578,0.309c0.231,0 0.424,-0.105 0.576,-0.315c0.137,-0.19 0.205,-0.405 0.205,-0.645c0,-0.251 -0.065,-0.467 -0.197,-0.649c-0.146,-0.201 -0.341,-0.301 -0.584,-0.301zm-26,0c-0.242,0 -0.436,0.101 -0.58,0.301c-0.129,0.179 -0.193,0.396 -0.193,0.649c0,0.251 0.064,0.468 0.195,0.651c0.146,0.205 0.34,0.309 0.578,0.309c0.231,0 0.424,-0.105 0.576,-0.315c0.137,-0.19 0.205,-0.405 0.205,-0.645c0,-0.251 -0.065,-0.467 -0.197,-0.649c-0.146,-0.201 -0.341,-0.301 -0.584,-0.301zm21,-6c-0.242,0 -0.436,0.101 -0.58,0.301c-0.129,0.179 -0.193,0.396 -0.193,0.649c0,0.251 0.064,0.468 0.195,0.651c0.146,0.205 0.34,0.309 0.578,0.309c0.231,0 0.424,-0.105 0.576,-0.315c0.137,-0.19 0.205,-0.405 0.205,-0.645c0,-0.251 -0.065,-0.467 -0.197,-0.649c-0.146,-0.201 -0.341,-0.301 -0.584,-0.301zm-45.999,7.91c0.231,0 0.423,-0.105 0.576,-0.315c0.137,-0.19 0.205,-0.405 0.205,-0.645c0,-0.251 -0.066,-0.467 -0.198,-0.649c-0.146,-0.2 -0.341,-0.301 -0.583,-0.301s-0.436,0.101 -0.581,0.301c-0.128,0.179 -0.193,0.396 -0.193,0.649c0,0.251 0.065,0.468 0.195,0.651c0.146,0.206 0.339,0.309 0.579,0.309zm1.856,-4.672c-0.128,0.179 -0.193,0.396 -0.193,0.649c0,0.251 0.065,0.468 0.195,0.651c0.146,0.205 0.339,0.309 0.579,0.309c0.231,0 0.423,-0.105 0.576,-0.315c0.137,-0.19 0.205,-0.405 0.205,-0.645c0,-0.251 -0.066,-0.467 -0.198,-0.649c-0.146,-0.2 -0.341,-0.301 -0.583,-0.301s-0.436,0.101 -0.581,0.301zm-1.856,-3.238c-0.243,0 -0.436,0.101 -0.581,0.301c-0.128,0.179 -0.193,0.396 -0.193,0.649c0,0.251 0.065,0.468 0.195,0.651c0.146,0.205 0.339,0.309 0.579,0.309c0.231,0 0.423,-0.105 0.576,-0.315c0.137,-0.19 0.205,-0.405 0.205,-0.645c0,-0.251 -0.066,-0.467 -0.198,-0.649c-0.146,-0.201 -0.341,-0.301 -0.583,-0.301zm20.124,7.91c0.231,0 0.424,-0.105 0.576,-0.315c0.137,-0.19 0.205,-0.405 0.205,-0.645c0,-0.251 -0.065,-0.467 -0.197,-0.649c-0.146,-0.2 -0.341,-0.301 -0.584,-0.301c-0.242,0 -0.436,0.101 -0.58,0.301c-0.129,0.179 -0.193,0.396 -0.193,0.649c0,0.251 0.064,0.468 0.195,0.651c0.146,0.206 0.34,0.309 0.578,0.309zm-15.374,-7.91c-0.243,0 -0.436,0.101 -0.581,0.301c-0.128,0.179 -0.193,0.396 -0.193,0.649c0,0.251 0.065,0.468 0.195,0.651c0.146,0.205 0.339,0.309 0.579,0.309c0.231,0 0.423,-0.105 0.576,-0.315c0.137,-0.19 0.205,-0.405 0.205,-0.645c0,-0.251 -0.066,-0.467 -0.198,-0.649c-0.146,-0.201 -0.341,-0.301 -0.583,-0.301zm20.249,0c-0.242,0 -0.436,0.101 -0.58,0.301c-0.129,0.179 -0.193,0.396 -0.193,0.649c0,0.251 0.064,0.468 0.195,0.651c0.146,0.205 0.34,0.309 0.578,0.309c0.231,0 0.424,-0.105 0.576,-0.315c0.137,-0.19 0.205,-0.405 0.205,-0.645c0,-0.251 -0.065,-0.467 -0.197,-0.649c-0.146,-0.201 -0.341,-0.301 -0.584,-0.301zm65.326,-75.416l0,90.272l-78.178,45.136l-78.177,-45.136l0,-90.272l78.177,-45.135l78.178,45.135zm-85.168,-27.177c-0.005,0.128 0.04,0.24 0.137,0.333l0.738,0.714c0.086,0.083 0.19,0.125 0.313,0.127c0.122,0.001 0.227,-0.039 0.313,-0.123c0.76,-0.696 1.616,-1.23 2.567,-1.6c0.95,-0.37 1.908,-0.563 2.874,-0.58c0.966,-0.016 1.93,0.145 2.892,0.483c0.963,0.338 1.835,0.844 2.615,1.519c0.089,0.08 0.194,0.117 0.316,0.112c0.122,-0.006 0.227,-0.053 0.313,-0.143l0.714,-0.738c0.094,-0.096 0.136,-0.209 0.127,-0.337c-0.003,-0.135 -0.054,-0.245 -0.153,-0.328c-0.945,-0.828 -2.009,-1.458 -3.189,-1.886c-1.181,-0.429 -2.403,-0.631 -3.667,-0.607c-1.264,0.018 -2.479,0.261 -3.645,0.729s-2.208,1.132 -3.125,1.991l-0.015,0.015c-0.086,0.092 -0.129,0.198 -0.125,0.319zm11.199,2.075c-0.595,-0.488 -1.255,-0.859 -1.982,-1.113s-1.477,-0.372 -2.245,-0.356c-0.769,0.009 -1.512,0.153 -2.231,0.431c-0.719,0.278 -1.366,0.67 -1.943,1.178l-0.025,0.026c-0.086,0.089 -0.129,0.192 -0.127,0.307c-0.009,0.133 0.038,0.247 0.138,0.344l0.697,0.674c0.086,0.083 0.188,0.126 0.305,0.13c0.117,0.002 0.221,-0.035 0.311,-0.115c0.838,-0.715 1.808,-1.082 2.909,-1.101c1.101,-0.019 2.081,0.316 2.943,1.003c0.093,0.076 0.197,0.111 0.314,0.104c0.116,-0.006 0.217,-0.053 0.3,-0.14l0.675,-0.697c0.096,-0.1 0.139,-0.216 0.126,-0.348c-0.008,-0.131 -0.062,-0.241 -0.165,-0.327zm-15.857,19.638l8.548,0l0,-7.507l6.289,0l0,7.524l8.505,0c-0.767,-3.405 -2.446,-6.187 -5.447,-7.675c-2.218,-1.099 -3.376,-2.736 -4.278,-4.816c-0.398,-0.919 -0.902,-1.792 -1.342,-2.694c-0.02,-0.041 -0.047,-0.106 -0.072,-0.166c0.18,-0.07 0.347,-0.172 0.494,-0.323c0.266,-0.275 0.396,-0.603 0.391,-0.982c-0.007,-0.379 -0.147,-0.702 -0.423,-0.969c-0.275,-0.266 -0.604,-0.396 -0.982,-0.39c-0.379,0.007 -0.703,0.147 -0.969,0.423c-0.267,0.276 -0.396,0.603 -0.391,0.982c0.007,0.38 0.147,0.702 0.423,0.968c0.118,0.114 0.25,0.191 0.387,0.255c-0.939,1.894 -1.87,3.751 -2.749,5.368c-0.31,0.57 -0.883,1.12 -1.469,1.397c-3.141,1.484 -5.346,3.796 -6.543,7.055c-0.174,0.474 -0.24,0.987 -0.372,1.55zm-43.15,70.043c0.991,-0.251 1.589,-1.347 1.577,-2.706c-0.065,-1.533 -0.605,-2.831 -1.963,-3.646c-1.137,-0.684 -2.364,-0.279 -2.894,0.937c-0.638,1.463 -0.31,2.848 0.548,4.101c0.637,0.93 1.489,1.628 2.732,1.314zm110.653,26.318c-0.632,-2.729 -3.06,-4.531 -6.189,-4.532c-16.577,-0.008 -33.156,-0.004 -49.735,-0.004c-6.116,0 -12.233,-0.001 -18.349,0c-10.462,0 -20.925,-0.006 -31.387,0.005c-2.827,0.003 -5.114,1.601 -5.934,4.079c-1.262,3.819 1.564,7.667 5.881,7.693c2.009,0.013 4.015,-0.616 6.035,-0.851c6.022,-0.697 12.036,-1.603 18.081,-1.947c8.751,-0.499 17.526,-0.786 26.29,-0.773c8.885,0.013 17.779,0.342 26.651,0.842c5.443,0.306 10.856,1.171 16.276,1.83c2.099,0.255 4.181,0.887 6.273,0.903c4.174,0.034 6.986,-3.453 6.107,-7.245zm-105.391,-9.177c-0.014,0.792 0.355,1.304 1.224,1.305c0.924,0.002 1.847,0 2.771,-0.001c0.964,0 1.928,0.015 2.891,-0.005c0.796,-0.017 1.162,-0.521 1.164,-1.25c0.001,-0.736 -0.36,-1.216 -1.173,-1.216c-1.888,0.001 -3.775,0.009 -5.662,-0.005c-0.81,-0.006 -1.201,0.42 -1.215,1.172zm1.145,-2.746c0.963,0.004 1.927,0.001 2.89,0.003c0.924,0.001 1.848,-0.007 2.771,0.004c0.791,0.009 1.218,-0.408 1.245,-1.156c0.028,-0.793 -0.369,-1.316 -1.217,-1.323c-1.887,-0.016 -3.774,-0.012 -5.661,0c-0.799,0.005 -1.162,0.493 -1.172,1.234c-0.011,0.743 0.326,1.234 1.144,1.238zm11.161,-2.608c0,-0.41 -0.121,-0.763 -0.364,-1.058c-0.259,-0.313 -0.589,-0.469 -0.991,-0.469c-0.4,0 -0.73,0.157 -0.989,0.472c-0.244,0.295 -0.366,0.646 -0.366,1.055s0.122,0.762 0.366,1.06c0.259,0.317 0.588,0.477 0.989,0.477c0.402,0 0.732,-0.159 0.991,-0.477c0.243,-0.296 0.364,-0.65 0.364,-1.06zm-0.031,1.883c-0.244,0.295 -0.366,0.646 -0.366,1.055s0.122,0.762 0.366,1.06c0.259,0.317 0.588,0.477 0.989,0.477c0.402,0 0.732,-0.159 0.991,-0.477c0.243,-0.296 0.364,-0.649 0.364,-1.06s-0.121,-0.763 -0.364,-1.058c-0.259,-0.313 -0.589,-0.469 -0.991,-0.469c-0.401,0 -0.73,0.157 -0.989,0.472zm-2.679,4.117c0,0.408 0.122,0.762 0.366,1.06c0.259,0.317 0.588,0.477 0.989,0.477c0.402,0 0.732,-0.159 0.991,-0.477c0.243,-0.296 0.364,-0.649 0.364,-1.06s-0.121,-0.763 -0.364,-1.058c-0.259,-0.313 -0.589,-0.469 -0.991,-0.469c-0.4,0 -0.73,0.157 -0.989,0.472c-0.244,0.295 -0.366,0.647 -0.366,1.055zm5.182,-6.864c0,0.02 -0.002,0.049 -0.006,0.088c-0.004,0.039 -0.006,0.068 -0.006,0.088s0.019,0.029 0.056,0.029c0.041,0 0.103,-0.013 0.187,-0.039c0.083,-0.026 0.145,-0.039 0.184,-0.039c0.016,0 0.024,0.019 0.024,0.057c0,0.523 -0.005,0.922 -0.015,1.195c-0.021,0.565 -0.032,0.865 -0.032,0.898c0,0.041 0.025,0.062 0.076,0.062s0.126,-0.002 0.227,-0.005s0.178,-0.005 0.232,-0.005s0.081,-0.032 0.081,-0.095c0,-0.144 -0.001,-0.359 -0.005,-0.647s-0.005,-0.504 -0.005,-0.647c0,-0.672 0.019,-1.155 0.056,-1.449c0.001,-0.021 0.002,-0.036 0.002,-0.045c0,-0.023 -0.011,-0.039 -0.034,-0.046c-0.096,-0.018 -0.169,-0.03 -0.22,-0.036c-0.137,-0.029 -0.204,-0.045 -0.203,-0.045c-0.008,0 -0.049,0.04 -0.122,0.12c-0.084,0.093 -0.129,0.142 -0.134,0.146c-0.106,0.095 -0.206,0.161 -0.3,0.2c-0.036,0.015 -0.054,0.032 -0.054,0.054c0,0.018 0.001,0.045 0.005,0.081c0.004,0.035 0.006,0.062 0.006,0.08zm0,6c0,0.02 -0.002,0.049 -0.006,0.088c-0.004,0.039 -0.006,0.068 -0.006,0.088s0.019,0.029 0.056,0.029c0.041,0 0.103,-0.013 0.187,-0.039c0.083,-0.026 0.145,-0.039 0.184,-0.039c0.016,0 0.024,0.019 0.024,0.057c0,0.523 -0.005,0.922 -0.015,1.195c-0.021,0.565 -0.032,0.865 -0.032,0.898c0,0.041 0.025,0.062 0.076,0.062s0.126,-0.002 0.227,-0.005s0.178,-0.005 0.232,-0.005s0.081,-0.032 0.081,-0.095c0,-0.144 -0.001,-0.359 -0.005,-0.647s-0.005,-0.504 -0.005,-0.647c0,-0.672 0.019,-1.155 0.056,-1.449c0.001,-0.021 0.002,-0.036 0.002,-0.045c0,-0.023 -0.011,-0.039 -0.034,-0.046c-0.096,-0.018 -0.169,-0.03 -0.22,-0.036c-0.137,-0.029 -0.204,-0.045 -0.203,-0.045c-0.008,0 -0.049,0.04 -0.122,0.12c-0.084,0.093 -0.129,0.142 -0.134,0.146c-0.106,0.095 -0.206,0.161 -0.3,0.2c-0.036,0.015 -0.054,0.032 -0.054,0.054c0,0.018 0.001,0.045 0.005,0.081c0.004,0.035 0.006,0.062 0.006,0.08zm4.416,0.035c0.254,1.149 1.194,1.744 2.448,1.721c1.325,-0.025 2.651,-0.006 3.976,-0.006c1.245,0.001 2.49,0.005 3.735,0c1.747,-0.007 2.609,-0.669 3.029,-2.313c0.714,-2.795 -0.711,-4.666 -3.554,-4.667c-2.369,0 -4.739,0.02 -7.109,-0.007c-1.355,-0.015 -2.337,0.606 -2.577,1.878c-0.207,1.095 -0.187,2.305 0.052,3.394zm23.082,0.904c0,-0.672 0.019,-1.155 0.056,-1.449c0.001,-0.021 0.002,-0.036 0.002,-0.045c0,-0.023 -0.011,-0.039 -0.034,-0.046c-0.096,-0.018 -0.169,-0.03 -0.22,-0.036c-0.137,-0.029 -0.204,-0.045 -0.203,-0.045c-0.008,0 -0.049,0.04 -0.122,0.12c-0.084,0.093 -0.129,0.142 -0.134,0.146c-0.106,0.095 -0.206,0.161 -0.3,0.2c-0.036,0.015 -0.054,0.032 -0.054,0.054c0,0.018 0.001,0.045 0.005,0.081c0.003,0.035 0.005,0.063 0.005,0.08c0,0.02 -0.002,0.049 -0.006,0.088c-0.004,0.039 -0.006,0.068 -0.006,0.088s0.019,0.029 0.056,0.029c0.041,0 0.103,-0.013 0.187,-0.039c0.083,-0.026 0.145,-0.039 0.184,-0.039c0.016,0 0.024,0.019 0.024,0.057c0,0.523 -0.005,0.922 -0.015,1.195c-0.021,0.565 -0.032,0.865 -0.032,0.898c0,0.041 0.025,0.062 0.076,0.062s0.126,-0.002 0.227,-0.005s0.178,-0.005 0.232,-0.005s0.081,-0.032 0.081,-0.095c0,-0.144 -0.001,-0.359 -0.005,-0.647s-0.004,-0.503 -0.004,-0.647zm0.854,-5.015c0.243,-0.296 0.364,-0.649 0.364,-1.06s-0.121,-0.763 -0.364,-1.058c-0.259,-0.313 -0.589,-0.469 -0.991,-0.469c-0.4,0 -0.73,0.157 -0.989,0.472c-0.244,0.295 -0.366,0.646 -0.366,1.055s0.122,0.762 0.366,1.06c0.259,0.317 0.588,0.477 0.989,0.477c0.401,-0.001 0.732,-0.16 0.991,-0.477zm-3.304,0.351c-0.4,0 -0.73,0.157 -0.989,0.472c-0.244,0.295 -0.366,0.646 -0.366,1.055s0.122,0.762 0.366,1.06c0.259,0.317 0.588,0.477 0.989,0.477c0.402,0 0.732,-0.159 0.991,-0.477c0.243,-0.296 0.364,-0.649 0.364,-1.06s-0.121,-0.763 -0.364,-1.058c-0.259,-0.313 -0.589,-0.469 -0.991,-0.469zm-1.082,-1.411c0,-0.41 -0.121,-0.763 -0.364,-1.058c-0.259,-0.313 -0.589,-0.469 -0.991,-0.469c-0.4,0 -0.73,0.157 -0.989,0.472c-0.244,0.295 -0.366,0.646 -0.366,1.055s0.122,0.762 0.366,1.06c0.259,0.317 0.588,0.477 0.989,0.477c0.402,0 0.732,-0.159 0.991,-0.477c0.242,-0.296 0.364,-0.65 0.364,-1.06zm-2.71,6c0,0.408 0.122,0.762 0.366,1.06c0.259,0.317 0.588,0.477 0.989,0.477c0.402,0 0.732,-0.159 0.991,-0.477c0.243,-0.296 0.364,-0.649 0.364,-1.06s-0.121,-0.763 -0.364,-1.058c-0.259,-0.313 -0.589,-0.469 -0.991,-0.469c-0.4,0 -0.73,0.157 -0.989,0.472c-0.244,0.295 -0.366,0.647 -0.366,1.055zm17.721,-5.606l-8.938,0c1.279,1.992 3.016,2.47 4.929,2.347c1.616,-0.103 3.111,-0.61 4.009,-2.347zm-1.922,4.251c-1.915,-0.094 -3.84,-0.094 -5.754,0.005c-0.383,0.02 -0.736,0.617 -1.104,0.948c0.366,0.286 0.707,0.769 1.103,0.82c0.944,0.121 1.914,0.039 2.874,0.04s1.932,0.092 2.873,-0.041c0.423,-0.06 0.782,-0.57 1.17,-0.875c-0.387,-0.313 -0.761,-0.877 -1.162,-0.897zm4.757,-5.509c0,0.02 -0.002,0.049 -0.007,0.088c-0.004,0.039 -0.006,0.068 -0.006,0.088s0.02,0.029 0.057,0.029c0.041,0 0.104,-0.013 0.188,-0.039c0.083,-0.026 0.145,-0.039 0.184,-0.039c0.016,0 0.024,0.019 0.024,0.057c0,0.523 -0.005,0.922 -0.015,1.195c-0.021,0.565 -0.031,0.865 -0.031,0.898c0,0.041 0.025,0.062 0.075,0.062s0.126,-0.002 0.228,-0.005c0.101,-0.003 0.178,-0.005 0.231,-0.005s0.081,-0.032 0.081,-0.095c0,-0.144 -0.002,-0.359 -0.006,-0.647c-0.003,-0.288 -0.004,-0.504 -0.004,-0.647c0,-0.672 0.018,-1.155 0.056,-1.449c0.001,-0.021 0.003,-0.036 0.003,-0.045c0,-0.023 -0.012,-0.039 -0.035,-0.046c-0.096,-0.018 -0.169,-0.03 -0.219,-0.036c-0.137,-0.029 -0.205,-0.045 -0.203,-0.045c-0.008,0 -0.049,0.04 -0.122,0.12c-0.085,0.093 -0.13,0.142 -0.134,0.146c-0.106,0.095 -0.207,0.161 -0.301,0.2c-0.035,0.015 -0.054,0.032 -0.054,0.054c0,0.018 0.001,0.045 0.005,0.081c0.004,0.035 0.005,0.062 0.005,0.08zm-0.065,5.809c-0.244,0.295 -0.366,0.646 -0.366,1.055s0.122,0.762 0.366,1.06c0.259,0.317 0.588,0.477 0.988,0.477c0.402,0 0.732,-0.159 0.992,-0.477c0.242,-0.296 0.363,-0.649 0.363,-1.06s-0.121,-0.763 -0.363,-1.058c-0.26,-0.313 -0.59,-0.469 -0.992,-0.469c-0.4,0.001 -0.729,0.158 -0.988,0.472zm7.219,-4.945c0,-0.41 -0.121,-0.763 -0.363,-1.058c-0.26,-0.313 -0.59,-0.469 -0.992,-0.469c-0.4,0 -0.729,0.157 -0.988,0.472c-0.244,0.295 -0.366,0.646 -0.366,1.055s0.122,0.762 0.366,1.06c0.259,0.317 0.588,0.477 0.988,0.477c0.402,0 0.732,-0.159 0.992,-0.477c0.241,-0.296 0.363,-0.65 0.363,-1.06zm-0.364,4.942c-0.26,-0.313 -0.59,-0.469 -0.992,-0.469c-0.4,0 -0.729,0.157 -0.988,0.472c-0.244,0.295 -0.366,0.646 -0.366,1.055s0.122,0.762 0.366,1.06c0.259,0.317 0.588,0.477 0.988,0.477c0.402,0 0.732,-0.159 0.992,-0.477c0.242,-0.296 0.363,-0.649 0.363,-1.06s-0.121,-0.763 -0.363,-1.058zm-2.437,-3.062c-0.26,-0.313 -0.59,-0.469 -0.992,-0.469c-0.4,0 -0.729,0.157 -0.988,0.472c-0.244,0.295 -0.366,0.646 -0.366,1.055s0.122,0.762 0.366,1.06c0.259,0.317 0.588,0.477 0.988,0.477c0.402,0 0.732,-0.159 0.992,-0.477c0.242,-0.296 0.363,-0.649 0.363,-1.06s-0.121,-0.763 -0.363,-1.058zm5.683,3.618c0.453,0.901 1.178,1.392 2.212,1.388c1.365,-0.005 2.73,-0.001 4.097,0c1.245,0.001 2.49,0.005 3.735,0c1.752,-0.007 2.602,-0.657 3.032,-2.308c0.727,-2.783 -0.707,-4.671 -3.545,-4.672c-2.369,0 -4.739,0.022 -7.108,-0.007c-1.357,-0.017 -2.197,0.628 -2.625,1.865c-0.438,1.267 -0.407,2.523 0.202,3.734zm23.118,-5.498c0,-0.41 -0.121,-0.763 -0.363,-1.058c-0.26,-0.313 -0.59,-0.469 -0.992,-0.469c-0.4,0 -0.729,0.157 -0.988,0.472c-0.244,0.295 -0.366,0.646 -0.366,1.055s0.122,0.762 0.366,1.06c0.259,0.317 0.588,0.477 0.988,0.477c0.402,0 0.732,-0.159 0.992,-0.477c0.241,-0.296 0.363,-0.65 0.363,-1.06zm-0.364,4.942c-0.26,-0.313 -0.59,-0.469 -0.992,-0.469c-0.4,0 -0.729,0.157 -0.988,0.472c-0.244,0.295 -0.366,0.646 -0.366,1.055s0.122,0.762 0.366,1.06c0.259,0.317 0.588,0.477 0.988,0.477c0.402,0 0.732,-0.159 0.992,-0.477c0.242,-0.296 0.363,-0.649 0.363,-1.06s-0.121,-0.763 -0.363,-1.058zm-2.562,-3.062c-0.26,-0.313 -0.59,-0.469 -0.992,-0.469c-0.4,0 -0.729,0.157 -0.988,0.472c-0.244,0.295 -0.366,0.646 -0.366,1.055s0.122,0.762 0.366,1.06c0.259,0.317 0.588,0.477 0.988,0.477c0.402,0 0.732,-0.159 0.992,-0.477c0.242,-0.296 0.363,-0.649 0.363,-1.06s-0.121,-0.763 -0.363,-1.058zm-2.074,-1.88c0,-0.41 -0.121,-0.763 -0.363,-1.058c-0.26,-0.313 -0.59,-0.469 -0.992,-0.469c-0.4,0 -0.729,0.157 -0.988,0.472c-0.244,0.295 -0.366,0.646 -0.366,1.055s0.122,0.762 0.366,1.06c0.259,0.317 0.588,0.477 0.988,0.477c0.402,0 0.732,-0.159 0.992,-0.477c0.241,-0.296 0.363,-0.65 0.363,-1.06zm-1.405,6.075c0,-0.672 0.018,-1.155 0.056,-1.449c0.001,-0.021 0.003,-0.036 0.003,-0.045c0,-0.023 -0.012,-0.039 -0.035,-0.046c-0.096,-0.018 -0.169,-0.03 -0.219,-0.036c-0.137,-0.029 -0.205,-0.045 -0.203,-0.045c-0.008,0 -0.049,0.04 -0.122,0.12c-0.085,0.093 -0.13,0.142 -0.134,0.146c-0.106,0.095 -0.207,0.161 -0.301,0.2c-0.035,0.015 -0.054,0.032 -0.054,0.054c0,0.018 0.001,0.045 0.005,0.081c0.004,0.035 0.005,0.063 0.005,0.08c0,0.02 -0.002,0.049 -0.007,0.088c-0.004,0.039 -0.006,0.068 -0.006,0.088s0.02,0.029 0.057,0.029c0.041,0 0.104,-0.013 0.188,-0.039c0.083,-0.026 0.145,-0.039 0.184,-0.039c0.016,0 0.024,0.019 0.024,0.057c0,0.523 -0.005,0.922 -0.015,1.195c-0.021,0.565 -0.031,0.865 -0.031,0.898c0,0.041 0.025,0.062 0.075,0.062s0.126,-0.002 0.228,-0.005c0.101,-0.003 0.178,-0.005 0.231,-0.005s0.081,-0.032 0.081,-0.095c0,-0.144 -0.002,-0.359 -0.006,-0.647c-0.003,-0.287 -0.004,-0.503 -0.004,-0.647zm7.698,-0.714c-0.015,0.725 0.302,1.278 1.11,1.288c1.928,0.024 3.856,0.021 5.783,0.002c0.795,-0.008 1.159,-0.524 1.157,-1.254c-0.002,-0.736 -0.367,-1.213 -1.181,-1.211c-0.923,0.003 -1.847,0.001 -2.77,0.001c-0.964,0 -1.928,0.012 -2.893,-0.004c-0.811,-0.013 -1.19,0.429 -1.206,1.178zm1.259,-2.745c0.923,-0.012 1.846,-0.003 2.77,-0.003c0.923,-0.001 1.848,-0.01 2.771,0.002c0.789,0.01 1.223,-0.399 1.251,-1.149c0.029,-0.79 -0.362,-1.321 -1.21,-1.329c-1.888,-0.018 -3.774,-0.012 -5.661,-0.002c-0.798,0.004 -1.166,0.488 -1.18,1.229c-0.015,0.821 0.401,1.263 1.259,1.252zm15.594,-18.294c0.021,-2.182 -1.544,-3.393 -3.192,-2.47c-1.624,0.909 -2.461,3.494 -1.676,5.175c0.563,1.207 1.753,1.622 2.897,0.938c1.361,-0.812 1.898,-2.112 1.971,-3.643zm12.492,-28.976c-0.526,-0.83 -1.393,-1.577 -2.274,-2.022c-1.509,-0.76 -3.03,-0.252 -4.512,0.661c0.098,-1.231 0.183,-2.304 0.269,-3.388c3.104,0.918 4.988,0.423 6.2,-1.596c0.985,-1.641 0.808,-3.909 -0.589,-5.231c-0.639,-0.606 -1.511,-1.098 -2.362,-1.321c-1.465,-0.386 -2.822,0.137 -4.062,1.197c-0.172,-0.636 -0.302,-1.117 -0.434,-1.6c3.235,-0.756 4.619,-2.025 4.805,-4.342c0.141,-1.766 -1.013,-3.597 -2.719,-4.318c-2.03,-0.857 -3.777,-0.276 -5.674,1.915c-0.594,-0.647 -1.184,-1.29 -1.774,-1.934c2.353,-1.976 3,-3.686 2.195,-5.732c-0.672,-1.708 -2.466,-2.903 -4.25,-2.83c-2.238,0.092 -3.594,1.43 -4.417,4.427c-1.011,-0.353 -2.016,-0.704 -3.045,-1.064c1.677,-2.418 1.784,-4.249 0.404,-6.025c-1.194,-1.535 -3.325,-2.186 -5.08,-1.342c-0.827,0.398 -1.6,1.093 -2.15,1.836c-0.953,1.286 -0.688,2.796 -0.284,4.244l-3.051,0c1.611,-2.791 1.401,-5.002 -0.552,-6.568c-1.656,-1.328 -4.271,-1.295 -5.722,0.278c-0.664,0.72 -1.128,1.759 -1.343,2.729c-0.354,1.604 0.486,2.914 1.747,4.125c-1.312,0.221 -2.423,0.408 -3.587,0.605c0.496,-2.674 -0.346,-4.576 -2.344,-5.523c-1.829,-0.867 -3.929,-0.408 -5.245,1.146c-1.511,1.784 -1.375,3.65 0.494,6.377c-0.748,0.261 -1.48,0.517 -2.248,0.785c-0.422,-2.241 -1.613,-3.648 -3.754,-4.037c-1.677,-0.305 -3.132,0.296 -4.151,1.65c-1.485,1.973 -1.163,3.96 0.284,5.897c-0.704,0.355 -1.329,0.67 -2.088,1.053c0,-2.327 -0.037,-4.455 0.024,-6.581c0.017,-0.603 0.262,-1.222 0.504,-1.791c0.551,-1.299 1.164,-2.571 1.809,-3.977l-23.402,0c-0.164,2.317 2.042,3.704 1.952,5.917c-0.083,2.075 -0.017,4.155 -0.017,6.415c-0.762,-0.394 -1.354,-0.7 -2.006,-1.037c1.814,-2.89 1.462,-5.641 -0.965,-6.911c-0.918,-0.48 -2.169,-0.654 -3.205,-0.511c-2.121,0.293 -3.052,1.972 -3.57,3.911c-0.803,-0.296 -1.498,-0.553 -2.219,-0.819c1.811,-2.21 2.071,-4.018 0.89,-5.878c-1.027,-1.618 -3.042,-2.486 -4.81,-1.859c-0.868,0.308 -1.718,0.892 -2.359,1.56c-1.115,1.163 -1.033,2.7 -0.768,4.254c-1.215,-0.232 -2.291,-0.437 -3.435,-0.656c2.054,-2.587 2.206,-4.783 0.545,-6.608c-1.435,-1.578 -3.885,-2.002 -5.582,-0.752c-0.794,0.584 -1.51,1.496 -1.859,2.413c-0.586,1.54 -0.139,3.063 1.045,4.46l-3.234,0c0.688,-2.975 0.105,-4.807 -1.858,-5.922c-1.757,-0.997 -3.886,-0.692 -5.318,0.763c-1.606,1.632 -1.617,3.516 0.002,6.41c-0.984,0.349 -1.957,0.693 -2.933,1.039c-0.847,-2.972 -2.168,-4.298 -4.388,-4.429c-1.787,-0.106 -3.566,1.053 -4.27,2.781c-0.83,2.038 -0.226,3.676 2.154,5.802c-0.592,0.629 -1.184,1.258 -1.779,1.891c-1.91,-2.176 -3.635,-2.742 -5.645,-1.906c-1.787,0.744 -2.866,2.407 -2.642,4.422c0.093,0.834 0.377,1.873 0.957,2.376c1.036,0.896 2.362,1.456 3.671,2.217c-0.051,0.174 -0.196,0.671 -0.345,1.181c-2.65,-1.611 -4.643,-1.6 -6.303,0.005c-1.446,1.4 -1.762,3.562 -0.777,5.318c1.154,2.058 2.95,2.546 6.371,1.697l0,3.215c-3.036,-1.29 -5.222,-0.851 -6.527,1.267c-1.188,1.926 -0.788,4.334 0.956,5.757c1.896,1.547 4.156,1.229 6.632,-1.013c0.25,1.046 0.484,2.026 0.714,2.985c-0.231,0.086 -0.305,0.114 -0.379,0.141c-2.5,0.9 -3.679,2.683 -3.325,5.027c0.333,2.203 2.034,3.522 4.641,3.711c0.341,0.025 0.804,0.431 0.95,0.771c0.882,2.067 1.652,4.182 2.551,6.242c0.176,0.404 0.71,0.719 1.149,0.93c1.286,0.618 2.768,0.949 3.882,1.781c2.277,1.702 2.896,4.979 1.024,6.928c-1.637,1.703 -1.213,3.051 -0.398,4.693c0.125,0.251 0.202,0.525 0.311,0.783c0.47,1.105 0.657,2.65 1.493,3.193c0.889,0.577 2.395,0.241 3.631,0.241c32.074,0.007 64.148,0.001 96.223,0.026c0.971,0 1.512,-0.214 1.837,-1.206c0.522,-1.6 1.159,-3.169 1.863,-4.698c0.409,-0.888 0.354,-1.419 -0.404,-2.143c-2.265,-2.162 -2.265,-5.537 0.126,-7.559c1.111,-0.941 2.623,-1.496 4.041,-1.951c0.712,-0.229 1.058,-0.473 1.308,-1.132c0.754,-1.989 1.606,-3.941 2.338,-5.938c0.277,-0.753 0.614,-1.032 1.457,-1.02c2.153,0.03 3.916,-1.529 4.317,-3.653c0.362,-1.924 -0.783,-3.971 -2.686,-4.779c-0.354,-0.15 -0.72,-0.274 -1.089,-0.414c0.262,-1.023 0.506,-1.977 0.76,-2.97c2.286,2.207 4.525,2.58 6.475,1.127c1.746,-1.301 2.368,-3.757 1.207,-5.589z" fill="#242A44" clip-path="url(#SVGID_2_)"/>
   <path id="svg_23" d="m397.635038,116.870904c-4.116,-1.013 -8.293,-1.034 -12.463,-0.468c-8.198,1.111 -15.743,4.064 -22.844,8.25c-0.893,0.526 -1.279,1.076 -1.266,2.168c0.069,5.392 0.036,10.785 0.021,16.177c-0.001,0.373 -0.033,0.831 -0.241,1.105c-2.002,2.644 -3.365,5.603 -4.378,8.734c-0.123,0.377 0.028,0.843 0.052,1.268c0.459,-0.05 1.012,0.046 1.361,-0.175c1.491,-0.944 2.954,-1.939 4.366,-2.997c1.206,-0.904 2.328,-1.919 3.616,-2.992l0,21.556c-1.648,-1.284 -3.101,-2.557 -4.694,-3.615c-1.46,-0.969 -3.023,-1.825 -4.635,-2.508c-1.298,-0.549 -2.083,0.259 -1.601,1.616c1.619,4.548 4.648,7.873 9.316,9.198c5.095,1.446 11.727,-2.781 12.904,-7.964c0.215,-0.946 0.169,-1.999 0.024,-2.97c-0.216,-1.45 -1.157,-2.102 -2.512,-1.581c-1.745,0.671 -3.382,1.626 -5.06,2.472c-0.368,0.186 -0.712,0.427 -1.249,0.752c-0.131,-3.577 -0.215,-6.908 1.037,-10.086c1.039,-2.638 3.068,-3.634 5.821,-2.881c1.075,0.294 2.089,0.81 3.129,1.231c0.311,0.126 0.614,0.269 1.036,0.456c-0.053,-0.802 -0.192,-1.453 -0.121,-2.079c0.229,-2.02 0.386,-4.069 0.863,-6.035c0.362,-1.49 1.561,-2.48 3.149,-2.617c3.433,-0.297 6.925,1.08 5.557,6.256c-0.538,2.035 -1.465,3.968 -2.169,5.829c1.414,0.522 3.002,0.956 4.446,1.677c1.874,0.935 2.924,2.582 2.741,4.713c-0.273,3.211 -1.905,5.658 -4.643,7.351c-0.317,0.196 -0.713,0.265 -0.839,0.31c-0.946,-1.409 -1.677,-2.757 -2.676,-3.862c-0.432,-0.478 -1.534,-0.77 -2.119,-0.559c-0.5,0.181 -0.95,1.194 -0.976,1.855c-0.064,1.759 -0.026,3.545 0.22,5.286c0.569,4.008 3.026,6.662 6.343,7.079c4.325,0.543 8.941,-2.077 10.679,-6.117c0.368,-0.858 0.962,-1.88 0.144,-2.708c-0.842,-0.852 -1.917,-0.371 -2.803,0.075c-1.281,0.645 -2.496,1.424 -3.961,2.274c2.072,-6.215 4.086,-12.255 6.177,-18.528c1.638,3.3 2.46,6.701 4.82,9.232c0.209,-0.069 0.418,-0.137 0.626,-0.205c0.543,-4.851 -0.614,-9.537 -1.75,-14.374c1.453,0.692 2.744,1.307 4.032,1.92c2.139,-4.32 3.833,-13.713 3.357,-18.433c-0.81,-8.104 -5.121,-13.187 -12.837,-15.086m-12.595,12.112c-0.299,1.596 -0.811,3.153 -1.262,4.871c-0.946,-0.395 -1.668,-0.696 -2.411,-1.006c0.34,-1.143 0.702,-2.199 0.957,-3.28c0.154,-0.654 0.185,-1.346 0.198,-2.023c0.021,-1.022 -0.539,-1.657 -1.546,-1.569c-1.383,0.122 -2.78,0.316 -4.118,0.683c-1.304,0.357 -2.557,0.93 -3.8,1.481c-1.198,0.533 -2.355,1.159 -3.634,1.795c-0.423,-0.728 -0.816,-1.404 -1.255,-2.161c3.739,-2.093 7.449,-3.975 11.69,-4.414c3.661,-0.379 5.859,2.003 5.181,5.623m16.403,3.587c-1.409,-0.822 -2.666,-1.699 -4.04,-2.316c-1.265,-0.567 -2.629,-1.04 -3.992,-1.222c-2.549,-0.34 -4.027,1.165 -4.938,3.521c-0.786,-0.294 -1.516,-0.567 -2.237,-0.836c0.672,-3.461 4.055,-5.762 7.806,-5.236c3.349,0.469 6.18,2.11 8.923,4.23c-0.586,0.716 -1.06,1.295 -1.522,1.859" fill="#242A44" clip-path="url(#SVGID_2_)"/>
   <path id="svg_24" d="m313.680038,195.750904c-2.972,-0.193 -5.688,0.818 -8.585,1.828c4.054,1.168 4.145,1.341 2.325,3.979c1.173,-0.586 2.39,-1.1 3.507,-1.778c1.19,-0.724 2.309,-1.572 3.405,-2.436c0.263,-0.207 0.525,-0.814 0.407,-1.014c-0.177,-0.303 -0.679,-0.554 -1.059,-0.579" fill="#242A44" clip-path="url(#SVGID_2_)"/>
   <path id="svg_25" d="m373.918038,177.328904l7.433,0c-0.814,-2.451 -1.604,-4.824 -2.476,-7.441c-1.714,2.573 -3.292,4.942 -4.957,7.441" fill="#242A44" clip-path="url(#SVGID_2_)"/>
   <polygon id="svg_26" points="351.77502727508545,57.2678918838501 351.77502727508545,60.06491947174072 431.7770414352417,106.25391101837158 431.7770414352417,198.87987995147705 351.77502727508545,245.06887531280518 351.77502727508545,247.86489582061768 434.1990385055542,200.2778902053833 434.1990385055542,104.8558931350708 " fill="#78272B" clip-path="url(#SVGID_2_)"/>
   <path id="svg_27" d="m361.080038,197.112904c0.645,0.127 1.016,0.146 1.344,0.275c0.671,0.264 1.319,0.586 1.977,0.884c-0.303,0.578 -0.604,1.155 -1.083,2.072c2.34,-1.115 4.503,-2.116 6.631,-3.189c0.323,-0.163 0.479,-0.655 0.713,-0.995c-0.345,-0.146 -0.684,-0.402 -1.035,-0.421c-2.853,-0.155 -5.563,0.569 -8.547,1.374" fill="#78272B" clip-path="url(#SVGID_2_)"/>
   <path id="svg_28" d="m351.775038,153.776904l0,2.385c1.223,0.122 2.242,1.199 2.213,2.422c-0.027,1.187 -1.044,2.243 -2.213,2.367l0,2.386c2.506,-0.133 4.585,-2.275 4.587,-4.793c0.003,-2.535 -2.069,-4.66 -4.587,-4.767" fill="#78272B" clip-path="url(#SVGID_2_)"/>
   <path id="svg_29" d="m352.235038,134.289904c1.805,-0.581 2.998,-1.596 3.24,-3.456c0.235,-1.807 -0.59,-3.147 -2.07,-4.129c2.515,-2.121 2.73,-3.833 0.954,-6.609c1.585,-2.308 1.523,-4.415 -0.175,-5.934c-0.684,-0.613 -1.539,-0.921 -2.409,-0.967l0,29.155c1.698,-0.101 3.254,-1.358 3.646,-2.983c0.52,-2.167 -0.451,-3.756 -3.186,-5.077" fill="#78272B" clip-path="url(#SVGID_2_)"/>
   <path id="svg_30" d="m389.214038,197.498904c1.012,0.41 2.284,0.549 2.894,1.258c0.964,1.121 -0.498,1.835 -0.998,2.695c0.063,0.132 0.125,0.265 0.188,0.396c2.271,-1.446 4.561,-2.868 6.796,-4.368c0.318,-0.214 0.383,-0.809 0.564,-1.227c-0.415,-0.178 -0.823,-0.493 -1.244,-0.512c-2.902,-0.135 -5.563,0.844 -8.2,1.758" fill="#78272B" clip-path="url(#SVGID_2_)"/>
   <path id="svg_31" d="m351.775038,167.117904l0,10.208l5.101,0c-1.71,-3.422 -3.371,-6.746 -5.101,-10.208" fill="#78272B" clip-path="url(#SVGID_2_)"/>
   <path id="svg_32" d="m360.120038,189.145904c0.132,0.183 0.197,0.398 0.197,0.649c0,0.239 -0.068,0.454 -0.205,0.645c-0.152,0.21 -0.345,0.315 -0.576,0.315c-0.238,0 -0.432,-0.104 -0.578,-0.309c-0.131,-0.184 -0.195,-0.4 -0.195,-0.651c0,-0.254 0.064,-0.471 0.193,-0.649c0.145,-0.2 0.338,-0.301 0.58,-0.301c0.243,0 0.438,0.1 0.584,0.301zm69.617,-81.715l0,90.272l-77.962,45.011l0,-40.714c0.11,-0.001 0.221,-0.002 0.331,-0.002c8.885,0.013 17.779,0.342 26.651,0.842c5.442,0.306 10.855,1.171 16.276,1.83c2.1,0.255 4.182,0.887 6.274,0.902c4.173,0.033 6.986,-3.453 6.106,-7.245c-0.633,-2.73 -3.061,-4.531 -6.188,-4.532c-16.484,-0.008 -32.968,-0.004 -49.451,-0.004l0,-3.522c0.696,0.019 1.393,0.04 2.073,-0.056c0.423,-0.06 0.783,-0.57 1.171,-0.876c-0.387,-0.313 -0.762,-0.876 -1.163,-0.896c-0.693,-0.034 -1.387,-0.047 -2.081,-0.055l0,-1.849c1.613,-0.104 3.107,-0.612 4.003,-2.347l-4.003,0l0,-3.143c16.36,0.003 32.721,0.007 49.081,0.019c0.971,0.001 1.513,-0.213 1.837,-1.206c0.524,-1.599 1.161,-3.168 1.865,-4.697c0.409,-0.889 0.353,-1.419 -0.405,-2.143c-2.265,-2.162 -2.265,-5.537 0.126,-7.559c1.111,-0.941 2.622,-1.496 4.04,-1.952c0.712,-0.228 1.059,-0.472 1.309,-1.131c0.754,-1.989 1.605,-3.941 2.339,-5.938c0.275,-0.754 0.612,-1.032 1.456,-1.02c2.153,0.03 3.916,-1.529 4.316,-3.653c0.364,-1.924 -0.783,-3.971 -2.685,-4.779c-0.354,-0.15 -0.72,-0.274 -1.088,-0.414c0.261,-1.023 0.505,-1.977 0.759,-2.97c2.287,2.207 4.526,2.58 6.474,1.127c1.745,-1.301 2.367,-3.757 1.207,-5.589c-0.526,-0.83 -1.392,-1.577 -2.274,-2.022c-1.51,-0.76 -3.029,-0.252 -4.513,0.66c0.099,-1.231 0.184,-2.303 0.27,-3.387c3.104,0.918 4.988,0.423 6.201,-1.596c0.984,-1.641 0.807,-3.909 -0.589,-5.231c-0.641,-0.606 -1.513,-1.098 -2.362,-1.322c-1.465,-0.385 -2.823,0.137 -4.063,1.198c-0.172,-0.636 -0.302,-1.117 -0.432,-1.6c3.235,-0.756 4.619,-2.025 4.803,-4.343c0.143,-1.765 -1.012,-3.596 -2.718,-4.317c-2.03,-0.857 -3.778,-0.276 -5.673,1.915c-0.594,-0.647 -1.185,-1.29 -1.776,-1.934c2.354,-1.976 3,-3.686 2.196,-5.732c-0.671,-1.709 -2.465,-2.903 -4.25,-2.83c-2.239,0.092 -3.594,1.43 -4.416,4.427c-1.012,-0.353 -2.017,-0.704 -3.046,-1.064c1.677,-2.418 1.784,-4.249 0.404,-6.025c-1.194,-1.535 -3.324,-2.186 -5.08,-1.342c-0.826,0.398 -1.6,1.093 -2.15,1.836c-0.953,1.285 -0.687,2.796 -0.285,4.244l-3.05,0c1.612,-2.791 1.402,-5.002 -0.551,-6.568c-1.656,-1.328 -4.272,-1.295 -5.723,0.278c-0.664,0.72 -1.129,1.759 -1.343,2.729c-0.354,1.604 0.486,2.914 1.746,4.125c-1.311,0.221 -2.422,0.408 -3.587,0.605c0.498,-2.674 -0.345,-4.576 -2.343,-5.523c-1.828,-0.867 -3.929,-0.408 -5.245,1.146c-1.511,1.784 -1.374,3.65 0.495,6.377c-0.748,0.261 -1.482,0.517 -2.249,0.785c-0.422,-2.241 -1.614,-3.648 -3.754,-4.037c-1.678,-0.305 -3.132,0.296 -4.152,1.65c-1.485,1.972 -1.163,3.96 0.285,5.896c-0.704,0.356 -1.329,0.671 -2.087,1.054c0,-2.327 -0.037,-4.455 0.023,-6.581c0.018,-0.603 0.263,-1.222 0.503,-1.791c0.552,-1.299 1.165,-2.571 1.81,-3.977l-11.656,0l0,-12.386l2.974,0l0,7.524l8.504,0c-0.768,-3.405 -2.446,-6.187 -5.447,-7.675c-2.218,-1.099 -3.377,-2.736 -4.278,-4.816c-0.398,-0.919 -0.902,-1.792 -1.341,-2.694c-0.026,-0.054 -0.049,-0.11 -0.071,-0.168c0.179,-0.07 0.345,-0.172 0.491,-0.323c0.266,-0.275 0.396,-0.603 0.391,-0.982c-0.007,-0.379 -0.147,-0.702 -0.423,-0.969c-0.217,-0.209 -0.475,-0.309 -0.756,-0.35l-0.008,-1.259c1.002,0.031 1.906,0.352 2.705,0.987c0.093,0.076 0.197,0.111 0.314,0.104c0.116,-0.006 0.217,-0.053 0.3,-0.14l0.675,-0.697c0.096,-0.1 0.139,-0.216 0.126,-0.348c-0.006,-0.132 -0.06,-0.242 -0.163,-0.328c-0.595,-0.488 -1.255,-0.859 -1.982,-1.113c-0.645,-0.225 -1.309,-0.326 -1.986,-0.338l-0.011,-1.742c0.874,0.016 1.745,0.169 2.615,0.475c0.963,0.338 1.835,0.844 2.615,1.519c0.089,0.08 0.194,0.117 0.316,0.112c0.122,-0.006 0.227,-0.053 0.313,-0.143l0.714,-0.738c0.094,-0.096 0.136,-0.209 0.127,-0.337c-0.003,-0.135 -0.054,-0.245 -0.153,-0.328c-0.945,-0.828 -2.009,-1.458 -3.189,-1.886c-1.087,-0.396 -2.212,-0.589 -3.371,-0.599l0,-0.082l0,-14.706l77.962,45.012zm-71.124,75.5c0,0.02 -0.002,0.049 -0.007,0.088c-0.004,0.039 -0.006,0.068 -0.006,0.088s0.02,0.029 0.057,0.029c0.041,0 0.104,-0.013 0.188,-0.039c0.083,-0.026 0.145,-0.039 0.184,-0.039c0.016,0 0.024,0.019 0.024,0.057c0,0.523 -0.005,0.922 -0.015,1.195c-0.021,0.565 -0.031,0.865 -0.031,0.898c0,0.041 0.025,0.062 0.075,0.062s0.126,-0.002 0.228,-0.005c0.101,-0.003 0.178,-0.005 0.231,-0.005s0.081,-0.032 0.081,-0.095c0,-0.144 -0.002,-0.359 -0.006,-0.647c-0.003,-0.288 -0.004,-0.504 -0.004,-0.647c0,-0.672 0.018,-1.155 0.056,-1.449c0.001,-0.021 0.003,-0.036 0.003,-0.045c0,-0.023 -0.012,-0.039 -0.035,-0.046c-0.096,-0.018 -0.169,-0.03 -0.219,-0.036c-0.137,-0.029 -0.205,-0.045 -0.203,-0.045c-0.008,0 -0.049,0.04 -0.122,0.12c-0.085,0.093 -0.13,0.142 -0.134,0.146c-0.106,0.095 -0.207,0.161 -0.301,0.2c-0.035,0.015 -0.054,0.032 -0.054,0.054c0,0.018 0.001,0.045 0.005,0.081c0.004,0.035 0.005,0.062 0.005,0.08zm2.279,6.864c0,-0.41 -0.121,-0.763 -0.363,-1.058c-0.26,-0.313 -0.59,-0.469 -0.992,-0.469c-0.4,0 -0.729,0.157 -0.988,0.472c-0.244,0.295 -0.366,0.646 -0.366,1.055s0.122,0.762 0.366,1.06c0.259,0.317 0.588,0.477 0.988,0.477c0.402,0 0.732,-0.159 0.992,-0.477c0.241,-0.296 0.363,-0.65 0.363,-1.06zm2.074,-2.003c0.242,-0.296 0.363,-0.649 0.363,-1.06s-0.121,-0.763 -0.363,-1.058c-0.26,-0.313 -0.59,-0.469 -0.992,-0.469c-0.4,0 -0.729,0.157 -0.988,0.472c-0.244,0.295 -0.366,0.646 -0.366,1.055s0.122,0.762 0.366,1.06c0.259,0.317 0.588,0.477 0.988,0.477c0.402,0 0.732,-0.159 0.992,-0.477zm2.801,2.003c0,-0.41 -0.121,-0.763 -0.363,-1.058c-0.26,-0.313 -0.59,-0.469 -0.992,-0.469c-0.4,0 -0.729,0.157 -0.988,0.472c-0.244,0.295 -0.366,0.646 -0.366,1.055s0.122,0.762 0.366,1.06c0.259,0.317 0.588,0.477 0.988,0.477c0.402,0 0.732,-0.159 0.992,-0.477c0.241,-0.296 0.363,-0.65 0.363,-1.06zm0,-6c0,-0.41 -0.121,-0.763 -0.363,-1.058c-0.26,-0.313 -0.59,-0.469 -0.992,-0.469c-0.4,0 -0.729,0.157 -0.988,0.472c-0.244,0.295 -0.366,0.646 -0.366,1.055s0.122,0.762 0.366,1.06c0.259,0.317 0.588,0.477 0.988,0.477c0.402,0 0.732,-0.159 0.992,-0.477c0.241,-0.296 0.363,-0.65 0.363,-1.06zm12.416,-0.092c-2.37,0 -4.74,0.022 -7.11,-0.007c-1.356,-0.017 -2.196,0.628 -2.625,1.865c-0.438,1.267 -0.407,2.523 0.203,3.734c0.453,0.901 1.177,1.392 2.211,1.388c1.366,-0.005 2.732,-0.001 4.098,0c1.244,0.001 2.49,0.005 3.735,0c1.752,-0.007 2.603,-0.657 3.033,-2.308c0.725,-2.783 -0.708,-4.671 -3.545,-4.672zm7.238,4.673c0,-0.023 -0.012,-0.039 -0.035,-0.046c-0.096,-0.018 -0.169,-0.03 -0.219,-0.036c-0.137,-0.029 -0.205,-0.045 -0.203,-0.045c-0.008,0 -0.049,0.04 -0.122,0.12c-0.085,0.093 -0.13,0.142 -0.134,0.146c-0.106,0.095 -0.207,0.161 -0.301,0.2c-0.035,0.015 -0.054,0.032 -0.054,0.054c0,0.018 0.001,0.045 0.005,0.081c0.004,0.035 0.005,0.063 0.005,0.08c0,0.02 -0.002,0.049 -0.007,0.088c-0.004,0.039 -0.006,0.068 -0.006,0.088s0.02,0.029 0.057,0.029c0.041,0 0.104,-0.013 0.188,-0.039c0.083,-0.026 0.145,-0.039 0.184,-0.039c0.016,0 0.024,0.019 0.024,0.057c0,0.523 -0.005,0.922 -0.015,1.195c-0.021,0.565 -0.031,0.865 -0.031,0.898c0,0.041 0.025,0.062 0.075,0.062s0.126,-0.002 0.228,-0.005c0.101,-0.003 0.178,-0.005 0.231,-0.005s0.081,-0.032 0.081,-0.095c0,-0.144 -0.002,-0.359 -0.006,-0.647c-0.003,-0.288 -0.004,-0.504 -0.004,-0.647c0,-0.672 0.018,-1.155 0.056,-1.449c0.001,-0.021 0.003,-0.036 0.003,-0.045zm0.982,-3.521c0.242,-0.296 0.363,-0.649 0.363,-1.06s-0.121,-0.763 -0.363,-1.058c-0.26,-0.313 -0.59,-0.469 -0.992,-0.469c-0.4,0 -0.729,0.157 -0.988,0.472c-0.244,0.295 -0.366,0.646 -0.366,1.055s0.122,0.762 0.366,1.06c0.259,0.317 0.588,0.477 0.988,0.477c0.402,-0.001 0.733,-0.16 0.992,-0.477zm2.438,2.937c0.242,-0.296 0.363,-0.649 0.363,-1.06s-0.121,-0.763 -0.363,-1.058c-0.26,-0.313 -0.59,-0.469 -0.992,-0.469c-0.4,0 -0.729,0.157 -0.988,0.472c-0.244,0.295 -0.366,0.646 -0.366,1.055s0.122,0.762 0.366,1.06c0.259,0.317 0.588,0.477 0.988,0.477c0.402,0 0.732,-0.159 0.992,-0.477zm2.926,2.003c0,-0.41 -0.121,-0.763 -0.363,-1.058c-0.26,-0.313 -0.59,-0.469 -0.992,-0.469c-0.4,0 -0.729,0.157 -0.988,0.472c-0.244,0.295 -0.366,0.646 -0.366,1.055s0.122,0.762 0.366,1.06c0.259,0.317 0.588,0.477 0.988,0.477c0.402,0 0.732,-0.159 0.992,-0.477c0.241,-0.296 0.363,-0.65 0.363,-1.06zm0,-6c0,-0.41 -0.121,-0.763 -0.363,-1.058c-0.26,-0.313 -0.59,-0.469 -0.992,-0.469c-0.4,0 -0.729,0.157 -0.988,0.472c-0.244,0.295 -0.366,0.646 -0.366,1.055s0.122,0.762 0.366,1.06c0.259,0.317 0.588,0.477 0.988,0.477c0.402,0 0.732,-0.159 0.992,-0.477c0.241,-0.296 0.363,-0.65 0.363,-1.06zm9.343,5.398c-0.002,-0.736 -0.366,-1.213 -1.179,-1.211c-0.924,0.003 -1.847,0.001 -2.771,0.001c-0.964,0 -1.928,0.011 -2.891,-0.004c-0.813,-0.013 -1.193,0.429 -1.208,1.178c-0.016,0.725 0.3,1.278 1.11,1.288c1.927,0.024 3.854,0.021 5.781,0.002c0.797,-0.007 1.161,-0.523 1.158,-1.254zm0.001,-3.93c0.029,-0.79 -0.362,-1.321 -1.211,-1.329c-1.887,-0.018 -3.773,-0.012 -5.661,-0.002c-0.798,0.004 -1.165,0.488 -1.178,1.229c-0.015,0.821 0.401,1.263 1.258,1.252c0.923,-0.012 1.848,-0.003 2.771,-0.003c0.924,-0.001 1.847,-0.01 2.77,0.002c0.788,0.01 1.223,-0.399 1.251,-1.149zm8.804,-17.144c0.021,-2.182 -1.545,-3.393 -3.193,-2.47c-1.623,0.909 -2.46,3.494 -1.676,5.175c0.563,1.207 1.753,1.622 2.896,0.939c1.363,-0.813 1.9,-2.113 1.973,-3.644zm-47.941,17.663c-0.242,0 -0.436,0.101 -0.58,0.301c-0.129,0.179 -0.193,0.396 -0.193,0.649c0,0.251 0.064,0.468 0.195,0.651c0.146,0.205 0.34,0.309 0.578,0.309c0.231,0 0.424,-0.105 0.576,-0.315c0.137,-0.19 0.205,-0.405 0.205,-0.645c0,-0.251 -0.065,-0.467 -0.197,-0.649c-0.147,-0.2 -0.341,-0.301 -0.584,-0.301zm2.437,3.063c-0.242,0 -0.436,0.101 -0.58,0.301c-0.129,0.179 -0.193,0.396 -0.193,0.649c0,0.251 0.064,0.468 0.195,0.651c0.146,0.205 0.34,0.309 0.578,0.309c0.231,0 0.424,-0.105 0.576,-0.315c0.137,-0.19 0.205,-0.405 0.205,-0.645c0,-0.251 -0.065,-0.467 -0.197,-0.649c-0.146,-0.201 -0.341,-0.301 -0.584,-0.301zm21,-6c-0.242,0 -0.436,0.101 -0.58,0.301c-0.129,0.179 -0.193,0.396 -0.193,0.649c0,0.251 0.064,0.468 0.195,0.651c0.146,0.205 0.34,0.309 0.578,0.309c0.231,0 0.424,-0.105 0.576,-0.315c0.137,-0.19 0.205,-0.405 0.205,-0.645c0,-0.251 -0.065,-0.467 -0.197,-0.649c-0.146,-0.201 -0.341,-0.301 -0.584,-0.301zm5,6c-0.242,0 -0.436,0.101 -0.58,0.301c-0.129,0.179 -0.193,0.396 -0.193,0.649c0,0.251 0.064,0.468 0.195,0.651c0.146,0.205 0.34,0.309 0.578,0.309c0.231,0 0.424,-0.105 0.576,-0.315c0.137,-0.19 0.205,-0.405 0.205,-0.645c0,-0.251 -0.065,-0.467 -0.197,-0.649c-0.146,-0.201 -0.341,-0.301 -0.584,-0.301zm0,-6c-0.242,0 -0.436,0.101 -0.58,0.301c-0.129,0.179 -0.193,0.396 -0.193,0.649c0,0.251 0.064,0.468 0.195,0.651c0.146,0.205 0.34,0.309 0.578,0.309c0.231,0 0.424,-0.105 0.576,-0.315c0.137,-0.19 0.205,-0.405 0.205,-0.645c0,-0.251 -0.065,-0.467 -0.197,-0.649c-0.146,-0.201 -0.341,-0.301 -0.584,-0.301zm-26,0c-0.242,0 -0.436,0.101 -0.58,0.301c-0.129,0.179 -0.193,0.396 -0.193,0.649c0,0.251 0.064,0.468 0.195,0.651c0.146,0.205 0.34,0.309 0.578,0.309c0.231,0 0.424,-0.105 0.576,-0.315c0.137,-0.19 0.205,-0.405 0.205,-0.645c0,-0.251 -0.065,-0.467 -0.197,-0.649c-0.146,-0.201 -0.341,-0.301 -0.584,-0.301zm23.438,2.937c-0.242,0 -0.436,0.101 -0.58,0.301c-0.129,0.179 -0.193,0.396 -0.193,0.649c0,0.251 0.064,0.468 0.195,0.651c0.146,0.205 0.34,0.309 0.578,0.309c0.231,0 0.424,-0.105 0.576,-0.315c0.137,-0.19 0.205,-0.405 0.205,-0.645c0,-0.251 -0.065,-0.467 -0.197,-0.649c-0.147,-0.2 -0.341,-0.301 -0.584,-0.301z" fill="#78272B" clip-path="url(#SVGID_2_)"/>
   <path id="svg_33" d="m397.636038,116.872904c-4.117,-1.013 -8.293,-1.034 -12.463,-0.468c-8.199,1.111 -15.743,4.064 -22.844,8.25c-0.893,0.526 -1.279,1.076 -1.266,2.168c0.069,5.392 0.036,10.785 0.021,16.177c-0.001,0.373 -0.033,0.831 -0.241,1.105c-2.002,2.644 -3.365,5.603 -4.378,8.734c-0.123,0.377 0.028,0.843 0.052,1.268c0.459,-0.05 1.012,0.046 1.361,-0.175c1.491,-0.944 2.954,-1.939 4.366,-2.997c1.206,-0.904 2.328,-1.919 3.616,-2.992l0,21.556c-1.648,-1.284 -3.101,-2.557 -4.694,-3.615c-1.46,-0.969 -3.023,-1.825 -4.635,-2.508c-1.297,-0.549 -2.083,0.259 -1.6,1.616c1.619,4.548 4.648,7.873 9.316,9.198c5.095,1.446 11.727,-2.781 12.904,-7.964c0.215,-0.946 0.169,-1.999 0.024,-2.97c-0.216,-1.45 -1.157,-2.102 -2.512,-1.581c-1.745,0.671 -3.382,1.626 -5.059,2.472c-0.369,0.186 -0.713,0.427 -1.25,0.752c-0.131,-3.577 -0.215,-6.908 1.037,-10.086c1.039,-2.638 3.068,-3.634 5.821,-2.881c1.075,0.294 2.089,0.81 3.129,1.231c0.311,0.126 0.614,0.269 1.036,0.456c-0.053,-0.802 -0.193,-1.453 -0.121,-2.079c0.229,-2.02 0.385,-4.069 0.863,-6.035c0.362,-1.49 1.561,-2.48 3.149,-2.617c3.433,-0.297 6.925,1.08 5.557,6.256c-0.538,2.035 -1.465,3.968 -2.169,5.829c1.414,0.522 3.002,0.956 4.447,1.677c1.873,0.935 2.923,2.582 2.74,4.713c-0.273,3.211 -1.904,5.658 -4.643,7.351c-0.317,0.196 -0.713,0.265 -0.839,0.31c-0.946,-1.409 -1.677,-2.757 -2.675,-3.862c-0.433,-0.478 -1.535,-0.77 -2.12,-0.559c-0.5,0.181 -0.951,1.194 -0.976,1.855c-0.064,1.759 -0.026,3.546 0.221,5.286c0.568,4.008 3.025,6.662 6.342,7.079c4.326,0.543 8.941,-2.076 10.678,-6.117c0.369,-0.858 0.963,-1.88 0.145,-2.708c-0.842,-0.852 -1.917,-0.371 -2.803,0.075c-1.281,0.645 -2.496,1.424 -3.961,2.274c2.072,-6.215 4.086,-12.255 6.177,-18.528c1.638,3.3 2.46,6.701 4.82,9.232c0.209,-0.069 0.418,-0.137 0.626,-0.205c0.543,-4.851 -0.614,-9.537 -1.75,-14.373c1.453,0.691 2.744,1.306 4.032,1.92c2.139,-4.321 3.833,-13.714 3.357,-18.434c-0.811,-8.104 -5.122,-13.187 -12.838,-15.086m-12.595,12.112c-0.299,1.596 -0.81,3.153 -1.262,4.871c-0.946,-0.395 -1.668,-0.696 -2.411,-1.006c0.34,-1.143 0.702,-2.199 0.957,-3.28c0.154,-0.654 0.185,-1.346 0.199,-2.023c0.02,-1.022 -0.539,-1.657 -1.547,-1.569c-1.383,0.122 -2.78,0.316 -4.117,0.683c-1.305,0.357 -2.558,0.93 -3.801,1.481c-1.198,0.533 -2.355,1.159 -3.634,1.795c-0.423,-0.728 -0.815,-1.404 -1.255,-2.161c3.739,-2.093 7.449,-3.975 11.69,-4.414c3.661,-0.379 5.858,2.003 5.181,5.623m16.403,3.587c-1.409,-0.822 -2.666,-1.699 -4.04,-2.316c-1.265,-0.566 -2.628,-1.04 -3.992,-1.222c-2.549,-0.34 -4.027,1.165 -4.938,3.522c-0.786,-0.294 -1.516,-0.567 -2.237,-0.836c0.672,-3.461 4.055,-5.762 7.806,-5.236c3.348,0.469 6.18,2.11 8.923,4.23c-0.586,0.715 -1.06,1.294 -1.522,1.858" fill="#78272B" clip-path="url(#SVGID_2_)"/>
   <path id="svg_34" d="m373.919038,177.329904l7.433,0c-0.815,-2.451 -1.604,-4.824 -2.476,-7.441c-1.715,2.574 -3.292,4.942 -4.957,7.441" fill="#78272B" clip-path="url(#SVGID_2_)"/>
  </g>
  <path d="m311.766994,132.652014c0,0.41 -0.121,0.764 -0.363,1.06c-0.26,0.317 -0.59,0.477 -0.992,0.477c-0.4,0 -0.729,-0.159 -0.988,-0.477c-0.244,-0.298 -0.366,-0.651 -0.366,-1.06s0.122,-0.76 0.366,-1.055c0.259,-0.314 0.588,-0.472 0.988,-0.472c0.402,0 0.732,0.156 0.992,0.469c0.241,0.295 0.363,0.648 0.363,1.058zm-0.575,0c0,-0.251 -0.065,-0.467 -0.197,-0.649c-0.146,-0.2 -0.341,-0.301 -0.584,-0.301c-0.242,0 -0.436,0.101 -0.58,0.301c-0.129,0.179 -0.193,0.396 -0.193,0.649c0,0.251 0.064,0.468 0.195,0.651c0.146,0.205 0.34,0.309 0.578,0.309c0.231,0 0.424,-0.105 0.576,-0.315c0.137,-0.191 0.205,-0.406 0.205,-0.645zm-5.771,-1.419c0,0.009 -0.002,0.023 -0.003,0.045c-0.038,0.294 -0.056,0.777 -0.056,1.449c0,0.144 0.001,0.359 0.004,0.647c0.004,0.288 0.006,0.504 0.006,0.647c0,0.063 -0.027,0.095 -0.081,0.095s-0.131,0.002 -0.231,0.005c-0.102,0.003 -0.178,0.005 -0.228,0.005s-0.075,-0.021 -0.075,-0.062c0,-0.033 0.01,-0.333 0.031,-0.898c0.01,-0.273 0.015,-0.672 0.015,-1.195c0,-0.038 -0.009,-0.057 -0.024,-0.057c-0.039,0 -0.101,0.013 -0.184,0.039c-0.084,0.026 -0.146,0.039 -0.188,0.039c-0.037,0 -0.057,-0.01 -0.057,-0.029s0.002,-0.049 0.006,-0.088c0.005,-0.039 0.007,-0.068 0.007,-0.088c0,-0.018 -0.001,-0.045 -0.005,-0.08c-0.004,-0.036 -0.005,-0.063 -0.005,-0.081c0,-0.021 0.019,-0.039 0.054,-0.054c0.094,-0.039 0.194,-0.105 0.301,-0.2c0.004,-0.005 0.049,-0.054 0.134,-0.146c0.073,-0.08 0.114,-0.12 0.122,-0.12c-0.002,0 0.066,0.016 0.203,0.045c0.05,0.006 0.123,0.019 0.219,0.036c0.023,0.007 0.035,0.023 0.035,0.046zm-19.654,1.419c0,0.41 -0.121,0.764 -0.363,1.06c-0.26,0.317 -0.59,0.477 -0.992,0.477c-0.4,0 -0.729,-0.159 -0.988,-0.477c-0.244,-0.298 -0.366,-0.651 -0.366,-1.06s0.122,-0.76 0.366,-1.055c0.259,-0.314 0.588,-0.472 0.988,-0.472c0.402,0 0.732,0.156 0.992,0.469c0.241,0.295 0.363,0.648 0.363,1.058zm-0.575,0c0,-0.251 -0.065,-0.467 -0.197,-0.649c-0.146,-0.2 -0.341,-0.301 -0.584,-0.301c-0.242,0 -0.436,0.101 -0.58,0.301c-0.129,0.179 -0.193,0.396 -0.193,0.649c0,0.251 0.064,0.468 0.195,0.651c0.146,0.205 0.34,0.309 0.578,0.309c0.231,0 0.424,-0.105 0.576,-0.315c0.137,-0.191 0.205,-0.406 0.205,-0.645zm-4.3,0c0,0.41 -0.121,0.764 -0.363,1.06c-0.26,0.317 -0.59,0.477 -0.992,0.477c-0.4,0 -0.729,-0.159 -0.988,-0.477c-0.244,-0.298 -0.366,-0.651 -0.366,-1.06s0.122,-0.76 0.366,-1.055c0.259,-0.314 0.588,-0.472 0.988,-0.472c0.402,0 0.732,0.156 0.992,0.469c0.241,0.295 0.363,0.648 0.363,1.058zm-0.575,0c0,-0.251 -0.065,-0.467 -0.197,-0.649c-0.146,-0.2 -0.341,-0.301 -0.584,-0.301c-0.242,0 -0.436,0.101 -0.58,0.301c-0.129,0.179 -0.193,0.396 -0.193,0.649c0,0.251 0.064,0.468 0.195,0.651c0.146,0.205 0.34,0.309 0.578,0.309c0.231,0 0.424,-0.105 0.576,-0.315c0.137,-0.191 0.205,-0.406 0.205,-0.645zm-15.959,-1.419c0,0.009 -0.001,0.023 -0.002,0.045c-0.038,0.294 -0.056,0.777 -0.056,1.449c0,0.144 0.001,0.359 0.005,0.647s0.005,0.504 0.005,0.647c0,0.063 -0.027,0.095 -0.081,0.095s-0.131,0.002 -0.232,0.005s-0.177,0.005 -0.227,0.005s-0.076,-0.021 -0.076,-0.062c0,-0.033 0.011,-0.333 0.032,-0.898c0.01,-0.273 0.015,-0.672 0.015,-1.195c0,-0.038 -0.008,-0.057 -0.024,-0.057c-0.039,0 -0.101,0.013 -0.184,0.039c-0.084,0.026 -0.146,0.039 -0.187,0.039c-0.038,0 -0.056,-0.01 -0.056,-0.029s0.002,-0.049 0.006,-0.088c0.004,-0.039 0.006,-0.068 0.006,-0.088c0,-0.018 -0.001,-0.045 -0.005,-0.08c-0.003,-0.036 -0.005,-0.063 -0.005,-0.081c0,-0.021 0.018,-0.039 0.054,-0.054c0.094,-0.039 0.194,-0.105 0.3,-0.2c0.005,-0.005 0.05,-0.054 0.134,-0.146c0.073,-0.08 0.114,-0.12 0.122,-0.12c-0.001,0 0.066,0.016 0.203,0.045c0.05,0.006 0.124,0.019 0.22,0.036c0.022,0.007 0.033,0.023 0.033,0.046zm-3.591,1.419c0,0.41 -0.121,0.764 -0.364,1.06c-0.259,0.317 -0.589,0.477 -0.991,0.477c-0.4,0 -0.73,-0.159 -0.989,-0.477c-0.244,-0.298 -0.366,-0.651 -0.366,-1.06s0.122,-0.76 0.366,-1.055c0.259,-0.314 0.588,-0.472 0.989,-0.472c0.402,0 0.732,0.156 0.991,0.469c0.242,0.295 0.364,0.648 0.364,1.058zm-0.574,0c0,-0.251 -0.066,-0.467 -0.198,-0.649c-0.146,-0.2 -0.341,-0.301 -0.583,-0.301s-0.436,0.101 -0.581,0.301c-0.128,0.179 -0.193,0.396 -0.193,0.649c0,0.251 0.065,0.468 0.195,0.651c0.146,0.205 0.339,0.309 0.579,0.309c0.231,0 0.423,-0.105 0.576,-0.315c0.136,-0.191 0.205,-0.406 0.205,-0.645zm-22.335,-1.419c0,0.009 -0.001,0.023 -0.002,0.045c-0.038,0.294 -0.056,0.777 -0.056,1.449c0,0.144 0.001,0.359 0.005,0.647s0.005,0.504 0.005,0.647c0,0.063 -0.027,0.095 -0.081,0.095s-0.131,0.002 -0.232,0.005s-0.177,0.005 -0.227,0.005s-0.076,-0.021 -0.076,-0.062c0,-0.033 0.011,-0.333 0.032,-0.898c0.01,-0.273 0.015,-0.672 0.015,-1.195c0,-0.038 -0.008,-0.057 -0.024,-0.057c-0.039,0 -0.101,0.013 -0.184,0.039c-0.084,0.026 -0.146,0.039 -0.187,0.039c-0.038,0 -0.056,-0.01 -0.056,-0.029s0.002,-0.049 0.006,-0.088c0.004,-0.039 0.006,-0.068 0.006,-0.088c0,-0.018 -0.001,-0.045 -0.005,-0.08c-0.003,-0.036 -0.005,-0.063 -0.005,-0.081c0,-0.021 0.018,-0.039 0.054,-0.054c0.094,-0.039 0.194,-0.105 0.3,-0.2c0.005,-0.005 0.05,-0.054 0.134,-0.146c0.073,-0.08 0.114,-0.12 0.122,-0.12c-0.001,0 0.066,0.016 0.203,0.045c0.05,0.006 0.124,0.019 0.22,0.036c0.022,0.007 0.033,0.023 0.033,0.046zm-3.529,1.419c0,0.41 -0.121,0.764 -0.364,1.06c-0.259,0.317 -0.589,0.477 -0.991,0.477c-0.4,0 -0.73,-0.159 -0.989,-0.477c-0.244,-0.298 -0.366,-0.651 -0.366,-1.06s0.122,-0.76 0.366,-1.055c0.259,-0.314 0.588,-0.472 0.989,-0.472c0.402,0 0.732,0.156 0.991,0.469c0.243,0.295 0.364,0.648 0.364,1.058zm-0.574,0c0,-0.251 -0.066,-0.467 -0.198,-0.649c-0.146,-0.2 -0.341,-0.301 -0.583,-0.301s-0.436,0.101 -0.581,0.301c-0.128,0.179 -0.193,0.396 -0.193,0.649c0,0.251 0.065,0.468 0.195,0.651c0.146,0.205 0.339,0.309 0.579,0.309c0.231,0 0.423,-0.105 0.576,-0.315c0.137,-0.191 0.205,-0.406 0.205,-0.645zm75.449,-3.062c0,0.41 -0.121,0.764 -0.363,1.06c-0.26,0.317 -0.59,0.477 -0.992,0.477c-0.4,0 -0.729,-0.159 -0.988,-0.477c-0.244,-0.298 -0.366,-0.651 -0.366,-1.06s0.122,-0.76 0.366,-1.055c0.259,-0.314 0.588,-0.472 0.988,-0.472c0.402,0 0.732,0.156 0.992,0.469c0.242,0.295 0.363,0.647 0.363,1.058zm-0.574,0c0,-0.251 -0.065,-0.467 -0.197,-0.649c-0.146,-0.2 -0.341,-0.301 -0.584,-0.301c-0.242,0 -0.436,0.101 -0.58,0.301c-0.129,0.179 -0.193,0.396 -0.193,0.649c0,0.251 0.064,0.468 0.195,0.651c0.146,0.205 0.34,0.309 0.578,0.309c0.231,0 0.424,-0.105 0.576,-0.315c0.136,-0.191 0.205,-0.406 0.205,-0.645zm-25.301,0c0,0.41 -0.121,0.764 -0.363,1.06c-0.26,0.317 -0.59,0.477 -0.992,0.477c-0.4,0 -0.729,-0.159 -0.988,-0.477c-0.244,-0.298 -0.366,-0.651 -0.366,-1.06s0.122,-0.76 0.366,-1.055c0.259,-0.314 0.588,-0.472 0.988,-0.472c0.402,0 0.732,0.156 0.992,0.469c0.242,0.295 0.363,0.647 0.363,1.058zm-0.574,0c0,-0.251 -0.065,-0.467 -0.197,-0.649c-0.146,-0.2 -0.341,-0.301 -0.584,-0.301c-0.242,0 -0.436,0.101 -0.58,0.301c-0.129,0.179 -0.193,0.396 -0.193,0.649c0,0.251 0.064,0.468 0.195,0.651c0.146,0.205 0.34,0.309 0.578,0.309c0.231,0 0.424,-0.105 0.576,-0.315c0.136,-0.191 0.205,-0.406 0.205,-0.645zm-19.551,0c0,0.41 -0.121,0.764 -0.364,1.06c-0.259,0.317 -0.589,0.477 -0.991,0.477c-0.4,0 -0.73,-0.159 -0.989,-0.477c-0.244,-0.298 -0.366,-0.651 -0.366,-1.06s0.122,-0.76 0.366,-1.055c0.259,-0.314 0.588,-0.472 0.989,-0.472c0.402,0 0.732,0.156 0.991,0.469c0.243,0.295 0.364,0.647 0.364,1.058zm-0.574,0c0,-0.251 -0.066,-0.467 -0.198,-0.649c-0.146,-0.2 -0.341,-0.301 -0.583,-0.301s-0.436,0.101 -0.581,0.301c-0.128,0.179 -0.193,0.396 -0.193,0.649c0,0.251 0.065,0.468 0.195,0.651c0.146,0.205 0.339,0.309 0.579,0.309c0.231,0 0.423,-0.105 0.576,-0.315c0.137,-0.191 0.205,-0.406 0.205,-0.645zm-25.988,0c0,0.41 -0.121,0.764 -0.364,1.06c-0.259,0.317 -0.589,0.477 -0.991,0.477c-0.4,0 -0.73,-0.159 -0.989,-0.477c-0.244,-0.298 -0.366,-0.651 -0.366,-1.06s0.122,-0.76 0.366,-1.055c0.259,-0.314 0.588,-0.472 0.989,-0.472c0.402,0 0.732,0.156 0.991,0.469c0.242,0.295 0.364,0.647 0.364,1.058zm-0.574,0c0,-0.251 -0.066,-0.467 -0.198,-0.649c-0.146,-0.2 -0.341,-0.301 -0.583,-0.301s-0.436,0.101 -0.581,0.301c-0.128,0.179 -0.193,0.396 -0.193,0.649c0,0.251 0.065,0.468 0.195,0.651c0.146,0.205 0.339,0.309 0.579,0.309c0.231,0 0.423,-0.105 0.576,-0.315c0.136,-0.191 0.205,-0.406 0.205,-0.645zm75.699,-2.938c0,0.41 -0.121,0.764 -0.363,1.06c-0.26,0.317 -0.59,0.477 -0.992,0.477c-0.4,0 -0.729,-0.159 -0.988,-0.477c-0.244,-0.298 -0.366,-0.651 -0.366,-1.06s0.122,-0.76 0.366,-1.055c0.259,-0.314 0.588,-0.472 0.988,-0.472c0.402,0 0.732,0.156 0.992,0.469c0.241,0.295 0.363,0.648 0.363,1.058zm-0.575,0c0,-0.251 -0.065,-0.467 -0.197,-0.649c-0.146,-0.2 -0.341,-0.301 -0.584,-0.301c-0.242,0 -0.436,0.101 -0.58,0.301c-0.129,0.179 -0.193,0.396 -0.193,0.649c0,0.251 0.064,0.468 0.195,0.651c0.146,0.205 0.34,0.309 0.578,0.309c0.231,0 0.424,-0.105 0.576,-0.315c0.137,-0.191 0.205,-0.406 0.205,-0.645zm-4.425,0c0,0.41 -0.121,0.764 -0.363,1.06c-0.26,0.317 -0.59,0.477 -0.992,0.477c-0.4,0 -0.729,-0.159 -0.988,-0.477c-0.244,-0.298 -0.366,-0.651 -0.366,-1.06s0.122,-0.76 0.366,-1.055c0.259,-0.314 0.588,-0.472 0.988,-0.472c0.402,0 0.732,0.156 0.992,0.469c0.241,0.295 0.363,0.648 0.363,1.058zm-0.575,0c0,-0.251 -0.065,-0.467 -0.197,-0.649c-0.146,-0.2 -0.341,-0.301 -0.584,-0.301c-0.242,0 -0.436,0.101 -0.58,0.301c-0.129,0.179 -0.193,0.396 -0.193,0.649c0,0.251 0.064,0.468 0.195,0.651c0.146,0.205 0.34,0.309 0.578,0.309c0.231,0 0.424,-0.105 0.576,-0.315c0.137,-0.191 0.205,-0.406 0.205,-0.645zm-20.425,0c0,0.41 -0.121,0.764 -0.363,1.06c-0.26,0.317 -0.59,0.477 -0.992,0.477c-0.4,0 -0.729,-0.159 -0.988,-0.477c-0.244,-0.298 -0.366,-0.651 -0.366,-1.06s0.122,-0.76 0.366,-1.055c0.259,-0.314 0.588,-0.472 0.988,-0.472c0.402,0 0.732,0.156 0.992,0.469c0.241,0.295 0.363,0.648 0.363,1.058zm-0.575,0c0,-0.251 -0.065,-0.467 -0.197,-0.649c-0.146,-0.2 -0.341,-0.301 -0.584,-0.301c-0.242,0 -0.436,0.101 -0.58,0.301c-0.129,0.179 -0.193,0.396 -0.193,0.649c0,0.251 0.064,0.468 0.195,0.651c0.146,0.205 0.34,0.309 0.578,0.309c0.231,0 0.424,-0.105 0.576,-0.315c0.137,-0.191 0.205,-0.406 0.205,-0.645zm-5.521,-1.419c0,0.009 -0.002,0.023 -0.003,0.045c-0.038,0.294 -0.056,0.777 -0.056,1.449c0,0.144 0.001,0.359 0.004,0.647c0.004,0.288 0.006,0.504 0.006,0.647c0,0.063 -0.027,0.095 -0.081,0.095s-0.131,0.002 -0.231,0.005c-0.102,0.003 -0.178,0.005 -0.228,0.005s-0.075,-0.021 -0.075,-0.062c0,-0.033 0.01,-0.333 0.031,-0.898c0.01,-0.273 0.015,-0.672 0.015,-1.195c0,-0.038 -0.009,-0.057 -0.024,-0.057c-0.039,0 -0.101,0.013 -0.184,0.039c-0.084,0.026 -0.146,0.039 -0.188,0.039c-0.037,0 -0.057,-0.01 -0.057,-0.029s0.002,-0.049 0.006,-0.088c0.005,-0.039 0.007,-0.068 0.007,-0.088c0,-0.018 -0.001,-0.045 -0.005,-0.08c-0.004,-0.036 -0.005,-0.063 -0.005,-0.081c0,-0.021 0.019,-0.039 0.054,-0.054c0.094,-0.039 0.194,-0.105 0.301,-0.2c0.004,-0.005 0.049,-0.054 0.134,-0.146c0.073,-0.08 0.114,-0.12 0.122,-0.12c-0.002,0 0.066,0.016 0.203,0.045c0.05,0.006 0.123,0.019 0.219,0.036c0.023,0.007 0.035,0.023 0.035,0.046zm-14.154,1.419c0,0.41 -0.121,0.764 -0.364,1.06c-0.259,0.317 -0.589,0.477 -0.991,0.477c-0.4,0 -0.73,-0.159 -0.989,-0.477c-0.244,-0.298 -0.366,-0.651 -0.366,-1.06s0.122,-0.76 0.366,-1.055c0.259,-0.314 0.588,-0.472 0.989,-0.472c0.402,0 0.732,0.156 0.991,0.469c0.242,0.295 0.364,0.648 0.364,1.058zm-0.574,0c0,-0.251 -0.066,-0.467 -0.198,-0.649c-0.146,-0.2 -0.341,-0.301 -0.583,-0.301s-0.436,0.101 -0.581,0.301c-0.128,0.179 -0.193,0.396 -0.193,0.649c0,0.251 0.065,0.468 0.195,0.651c0.146,0.205 0.339,0.309 0.579,0.309c0.231,0 0.423,-0.105 0.576,-0.315c0.136,-0.191 0.205,-0.406 0.205,-0.645zm-4.176,0c0,0.41 -0.121,0.764 -0.364,1.06c-0.259,0.317 -0.589,0.477 -0.991,0.477c-0.4,0 -0.73,-0.159 -0.989,-0.477c-0.244,-0.298 -0.366,-0.651 -0.366,-1.06s0.122,-0.76 0.366,-1.055c0.259,-0.314 0.588,-0.472 0.989,-0.472c0.402,0 0.732,0.156 0.991,0.469c0.242,0.295 0.364,0.648 0.364,1.058zm-0.574,0c0,-0.251 -0.066,-0.467 -0.198,-0.649c-0.146,-0.2 -0.341,-0.301 -0.583,-0.301s-0.436,0.101 -0.581,0.301c-0.128,0.179 -0.193,0.396 -0.193,0.649c0,0.251 0.065,0.468 0.195,0.651c0.146,0.205 0.339,0.309 0.579,0.309c0.231,0 0.423,-0.105 0.576,-0.315c0.136,-0.191 0.205,-0.406 0.205,-0.645zm-22.335,-1.419c0,0.009 -0.001,0.023 -0.002,0.045c-0.038,0.294 -0.056,0.777 -0.056,1.449c0,0.144 0.001,0.359 0.005,0.647s0.005,0.504 0.005,0.647c0,0.063 -0.027,0.095 -0.081,0.095s-0.131,0.002 -0.232,0.005s-0.177,0.005 -0.227,0.005s-0.076,-0.021 -0.076,-0.062c0,-0.033 0.011,-0.333 0.032,-0.898c0.01,-0.273 0.015,-0.672 0.015,-1.195c0,-0.038 -0.008,-0.057 -0.024,-0.057c-0.039,0 -0.101,0.013 -0.184,0.039c-0.084,0.026 -0.146,0.039 -0.187,0.039c-0.038,0 -0.056,-0.01 -0.056,-0.029s0.002,-0.049 0.006,-0.088c0.004,-0.039 0.006,-0.068 0.006,-0.088c0,-0.018 -0.001,-0.045 -0.005,-0.08c-0.003,-0.036 -0.005,-0.063 -0.005,-0.081c0,-0.021 0.018,-0.039 0.054,-0.054c0.094,-0.039 0.194,-0.105 0.3,-0.2c0.005,-0.005 0.05,-0.054 0.134,-0.146c0.073,-0.08 0.114,-0.12 0.122,-0.12c-0.001,0 0.066,0.016 0.203,0.045c0.05,0.006 0.124,0.019 0.22,0.036c0.022,0.007 0.033,0.023 0.033,0.046zm-3.529,1.419c0,0.41 -0.121,0.764 -0.364,1.06c-0.259,0.317 -0.589,0.477 -0.991,0.477c-0.4,0 -0.73,-0.159 -0.989,-0.477c-0.244,-0.298 -0.366,-0.651 -0.366,-1.06s0.122,-0.76 0.366,-1.055c0.259,-0.314 0.588,-0.472 0.989,-0.472c0.402,0 0.732,0.156 0.991,0.469c0.243,0.295 0.364,0.648 0.364,1.058zm-0.574,0c0,-0.251 -0.066,-0.467 -0.198,-0.649c-0.146,-0.2 -0.341,-0.301 -0.583,-0.301s-0.436,0.101 -0.581,0.301c-0.128,0.179 -0.193,0.396 -0.193,0.649c0,0.251 0.065,0.468 0.195,0.651c0.146,0.205 0.339,0.309 0.579,0.309c0.231,0 0.423,-0.105 0.576,-0.315c0.137,-0.191 0.205,-0.406 0.205,-0.645z" fill="#FFFFFF" id="Numbers_1_"/>
  <g display="none" id="Numbers_Text_1_">
   <g display="inline" id="Row_3_copy">
    <text x="-354.919006" y="-348.678986" id="svg_35" font-size="5" font-family="'BerlinSansFB-Reg'" fill="#FFFFFF" transform="matrix(1,0,0,1,663.8418,482.8008) ">0</text>
    <text x="-354.919006" y="-348.678986" id="svg_36" font-size="5" font-family="'BerlinSansFB-Reg'" fill="#FFFFFF" transform="matrix(1,0,0,1,659.2168,482.8008) ">1</text>
    <text x="-354.919006" y="-348.678986" id="svg_37" font-size="5" font-family="'BerlinSansFB-Reg'" fill="#FFFFFF" transform="matrix(1,0,0,1,637.8418,482.8008) ">0</text>
    <text x="-354.919006" y="-348.678986" id="svg_38" font-size="5" font-family="'BerlinSansFB-Reg'" fill="#FFFFFF" transform="matrix(1,0,0,1,632.9668,482.8008) ">0</text>
    <text x="-354.919006" y="-348.678986" id="svg_39" font-size="5" font-family="'BerlinSansFB-Reg'" fill="#FFFFFF" transform="matrix(1,0,0,1,618.1538,482.8008) ">1</text>
    <text x="-354.919006" y="-348.678986" id="svg_40" font-size="5" font-family="'BerlinSansFB-Reg'" fill="#FFFFFF" transform="matrix(1,0,0,1,612.8413,482.8008) ">0</text>
    <text x="-354.919006" y="-348.678986" id="svg_41" font-size="5" font-family="'BerlinSansFB-Reg'" fill="#FFFFFF" transform="matrix(1,0,0,1,591.6538,482.8008) ">1</text>
    <text x="-354.919006" y="-348.678986" id="svg_42" font-size="5" font-family="'BerlinSansFB-Reg'" fill="#FFFFFF" transform="matrix(1,0,0,1,586.4038,482.8008) ">0</text>
   </g>
   <g display="inline" id="Row_2_copy">
    <text x="-354.919006" y="-348.678986" id="svg_43" font-size="5" font-family="'BerlinSansFB-Reg'" fill="#FFFFFF" transform="matrix(1,0,0,1,661.2793,479.7383) ">0</text>
    <text x="-354.919006" y="-348.678986" id="svg_44" font-size="5" font-family="'BerlinSansFB-Reg'" fill="#FFFFFF" transform="matrix(1,0,0,1,635.4043,479.7383) ">0</text>
    <text x="-354.919006" y="-348.678986" id="svg_45" font-size="5" font-family="'BerlinSansFB-Reg'" fill="#FFFFFF" transform="matrix(1,0,0,1,615.2788,479.7383) ">0</text>
    <text x="-354.919006" y="-348.678986" id="svg_46" font-size="5" font-family="'BerlinSansFB-Reg'" fill="#FFFFFF" transform="matrix(1,0,0,1,588.7163,479.7383) ">0</text>
   </g>
   <g display="inline" id="Row_1_copy">
    <text x="-354.919006" y="-348.678986" id="svg_47" font-size="5" font-family="'BerlinSansFB-Reg'" fill="#FFFFFF" transform="matrix(1,0,0,1,663.8418,476.8008) ">0</text>
    <text x="-354.919006" y="-348.678986" id="svg_48" font-size="5" font-family="'BerlinSansFB-Reg'" fill="#FFFFFF" transform="matrix(1,0,0,1,658.8418,476.8008) ">0</text>
    <text x="-354.919006" y="-348.678986" id="svg_49" font-size="5" font-family="'BerlinSansFB-Reg'" fill="#FFFFFF" transform="matrix(1,0,0,1,637.8418,476.8008) ">0</text>
    <text x="-354.919006" y="-348.678986" id="svg_50" font-size="5" font-family="'BerlinSansFB-Reg'" fill="#FFFFFF" transform="matrix(1,0,0,1,633.4668,476.8008) ">1</text>
    <text x="-354.919006" y="-348.678986" id="svg_51" font-size="5" font-family="'BerlinSansFB-Reg'" fill="#FFFFFF" transform="matrix(1,0,0,1,617.5913,476.8008) ">0</text>
    <text x="-354.919006" y="-348.678986" id="svg_52" font-size="5" font-family="'BerlinSansFB-Reg'" fill="#FFFFFF" transform="matrix(1,0,0,1,612.8413,476.8008) ">0</text>
    <text x="-354.919006" y="-348.678986" id="svg_53" font-size="5" font-family="'BerlinSansFB-Reg'" fill="#FFFFFF" transform="matrix(1,0,0,1,591.6538,476.8008) ">1</text>
    <text x="-354.919006" y="-348.678986" id="svg_54" font-size="5" font-family="'BerlinSansFB-Reg'" fill="#FFFFFF" transform="matrix(1,0,0,1,586.4038,476.8008) ">0</text>
   </g>
  </g>
  <g id="svg_55" display="none">
   <path id="svg_56" d="m272.574994,27.214014c0.275,0.267 0.416,0.589 0.423,0.969c0.006,0.379 -0.125,0.707 -0.391,0.982c-0.267,0.276 -0.589,0.417 -0.969,0.423s-0.707,-0.124 -0.982,-0.391c-0.275,-0.266 -0.416,-0.588 -0.423,-0.968c-0.006,-0.379 0.124,-0.707 0.391,-0.982c0.266,-0.275 0.59,-0.416 0.969,-0.423c0.379,-0.006 0.707,0.124 0.982,0.39zm3.193,-2.03c0.104,0.086 0.157,0.196 0.163,0.328c0.013,0.131 -0.03,0.248 -0.126,0.348l-0.675,0.697c-0.083,0.086 -0.184,0.133 -0.3,0.14c-0.117,0.007 -0.222,-0.027 -0.314,-0.104c-0.862,-0.687 -1.843,-1.021 -2.943,-1.003c-1.102,0.019 -2.071,0.386 -2.909,1.101c-0.09,0.08 -0.193,0.117 -0.311,0.115c-0.116,-0.004 -0.219,-0.046 -0.305,-0.13l-0.697,-0.674c-0.1,-0.097 -0.146,-0.211 -0.138,-0.344c-0.002,-0.115 0.041,-0.218 0.127,-0.307l0.025,-0.026c0.577,-0.508 1.225,-0.9 1.943,-1.178c0.72,-0.278 1.463,-0.422 2.231,-0.431c0.769,-0.016 1.518,0.102 2.245,0.356s1.389,0.624 1.984,1.112zm2.568,-2.634c0.1,0.083 0.15,0.192 0.153,0.328c0.009,0.128 -0.033,0.241 -0.127,0.337l-0.714,0.738c-0.087,0.09 -0.191,0.137 -0.313,0.143c-0.122,0.005 -0.228,-0.032 -0.316,-0.112c-0.78,-0.675 -1.652,-1.181 -2.615,-1.519c-0.962,-0.338 -1.926,-0.499 -2.892,-0.483c-0.966,0.016 -1.924,0.21 -2.874,0.58c-0.951,0.37 -1.808,0.903 -2.567,1.6c-0.087,0.083 -0.191,0.124 -0.313,0.123c-0.122,-0.001 -0.227,-0.043 -0.313,-0.127l-0.738,-0.714c-0.097,-0.093 -0.142,-0.205 -0.137,-0.333c-0.004,-0.121 0.039,-0.228 0.126,-0.317l0.015,-0.015c0.917,-0.859 1.959,-1.522 3.125,-1.991s2.381,-0.712 3.645,-0.729c1.264,-0.024 2.486,0.178 3.667,0.607c1.179,0.426 2.243,1.056 3.188,1.884z" fill="#FFFFFF"/>
  </g>
 </g>
</svg>