<svg id="Layer_1" data-name="Layer 1" xmlns="http://www.w3.org/2000/svg" xmlns:xlink="http://www.w3.org/1999/xlink" viewBox="0 0 550.16 282.64"><defs><style>.cls-1{fill:none;}.cls-2{clip-path:url(#clip-path);}.cls-3{fill:#78272b;}.cls-4{fill:#242a44;}</style><clipPath id="clip-path" transform="translate(-67.92 -63.68)"><rect class="cls-1" x="-287" y="-285" width="1260" height="980"/></clipPath></defs><title>hackregina-colour-title</title><g class="cls-2"><path class="cls-3" d="M345.92,304.74c0-10-6.55-15.09-19.48-15.09h-8.69v52h8.73V322L340,341.66h10.72l-15.82-22.29c6.75-1.66,11-7.15,11-14.63m-8.74.39c0,5.08-3,7.06-10.68,7.06h0V298c7.1,0,10.7,1.11,10.7,7.13" transform="translate(-67.92 -63.68)"/><polygon class="cls-3" points="297.74 277.98 326.31 277.98 326.31 269.63 306.48 269.63 306.48 253.82 325.72 253.82 325.72 245.48 306.48 245.48 306.48 234.32 326.31 234.32 326.31 225.97 297.74 225.97 297.74 277.98"/><path class="cls-3" d="M461.62,313.87H438.06v8.35h14.35c-1,7.2-8.54,11.93-15.6,11.93-4.28,0-9.13-2.19-12.64-5.71A17.89,17.89,0,0,1,419,315.85a18.49,18.49,0,0,1,18.24-18.69c6.22,0,11.39,2.85,15.37,8.47l1.1,1.55,6.42-6-.92-1.2c-5.62-7.31-13.2-11.17-21.91-11.17a27,27,0,0,0-27,27,26.75,26.75,0,0,0,26.72,26.72,25.72,25.72,0,0,0,19.27-8.72c4.7-5.45,5.58-11.25,5.44-18.29Z" transform="translate(-67.92 -63.68)"/><rect class="cls-3" x="411.15" y="225.97" width="8.73" height="52"/><polygon class="cls-3" points="477.67 261.21 439.69 221.43 439.69 277.98 448.43 277.98 448.43 242.93 486.4 282.64 486.4 225.97 477.67 225.97 477.67 261.21"/><path class="cls-3" d="M593.7,284.83l-25,56.83h9.58l5.87-13.83h18.6l5.75,13.83h9.62Zm-.17,21.06,5.67,13.6H587.72Z" transform="translate(-67.92 -63.68)"/><polygon class="cls-4" points="33.27 277.67 37.45 277.67 37.45 226.06 33.27 226.06 33.27 246.84 33.27 247.72 32.39 247.72 5.06 247.72 4.18 247.72 4.18 246.84 4.18 226.06 0 226.06 0 277.67 4.18 277.67 4.18 252.36 4.18 251.47 5.06 251.47 32.39 251.47 33.27 251.47 33.27 252.36 33.27 277.67"/><path class="cls-4" d="M138.87,326.2h24l.22.54,6.08,14.61h4.65l-22.67-52.83-23.27,52.83h4.58l6.21-14.61Zm2.18-5,9.13-21.38.82-1.92.81,1.93,8.92,21.38.51,1.22H140.52Z" transform="translate(-67.92 -63.68)"/><path class="cls-4" d="M234.91,298.48v-4.86a24.82,24.82,0,0,0-15-4.8,27,27,0,0,0-26.94,26.93,26.06,26.06,0,0,0,8,18.75,27,27,0,0,0,19,7.77,26.55,26.55,0,0,0,15-4.81v-4.89a23.74,23.74,0,0,1-15.25,5.94c-12.22,0-22.55-10.52-22.55-23s10.26-23,22.41-23a23.58,23.58,0,0,1,15.39,5.91" transform="translate(-67.92 -63.68)"/><polygon class="cls-4" points="199.94 252.66 200.57 253.36 222.18 277.56 228 277.56 203.43 250.51 202.86 249.88 203.46 249.28 227 225.95 221.51 225.95 199.05 248.55 197.54 250.08 197.54 247.93 197.54 225.95 193.36 225.95 193.36 277.56 197.54 277.56 197.54 255.43 197.54 255.07 197.79 254.81 199.28 253.32 199.94 252.66"/><path class="cls-4" d="M339.48,63.68l-82.64,47.71v95.42l82.64,47.71,82.64-47.71V111.39ZM419.7,205.41l-80.22,46.32-80.22-46.32V112.79l80.22-46.32,80.22,46.32Z" transform="translate(-67.92 -63.68)"/><path class="cls-4" d="M349,203.65a8.54,8.54,0,0,1,1.34.27c.67.27,1.32.59,2,.89-.3.57-.61,1.15-1.08,2.07,2.34-1.12,4.5-2.12,6.63-3.19.32-.16.47-.65.71-1a3.43,3.43,0,0,0-1-.43,27.07,27.07,0,0,0-8.54,1.38" transform="translate(-67.92 -63.68)"/><path class="cls-4" d="M309.69,183.84h7.4l-4.95-7.43c-.86,2.61-1.64,5-2.45,7.43" transform="translate(-67.92 -63.68)"/><path class="cls-4" d="M321,203.65a11.18,11.18,0,0,1,1.4.28c.65.23,1.28.52,1.92.78-.29.62-.57,1.24-1,2.16,2.32-1.12,4.52-2.15,6.68-3.25.29-.15.4-.62.6-.94a3.12,3.12,0,0,0-.93-.4c-2.89-.19-5.62.57-8.68,1.37" transform="translate(-67.92 -63.68)"/><path class="cls-4" d="M339.53,169.89a4.89,4.89,0,0,0,4.75-4.81,4.84,4.84,0,0,0-4.75-4.79,4.73,4.73,0,0,0-4.82,4.78,4.79,4.79,0,0,0,4.82,4.82m-.08-7.22a2.48,2.48,0,0,1,2.46,2.45,2.54,2.54,0,0,1-2.42,2.39,2.42,2.42,0,0,1-2.4-2.48,2.35,2.35,0,0,1,2.36-2.36" transform="translate(-67.92 -63.68)"/><path class="cls-4" d="M335.58,145.69a4,4,0,0,0,4,3.21,4.07,4.07,0,0,0,3.79-3c.52-2.16-.45-3.75-3.19-5.07,1.81-.59,3-1.6,3.24-3.46a4.08,4.08,0,0,0-2.07-4.13c2.52-2.12,2.73-3.83,1-6.61,1.58-2.31,1.52-4.41-.18-5.93a4,4,0,0,0-5.19-.07c-1.74,1.45-1.83,3.48-.5,5.65-.35,1.48-1,2.7-.81,3.81s1.08,2.18,1.72,3.36a4,4,0,0,0-1.78,4,4.19,4.19,0,0,0,3.21,3.36c-2.64,1.31-3.64,2.86-3.17,4.86" transform="translate(-67.92 -63.68)"/><path class="cls-4" d="M377.13,204c1,.41,2.29.55,2.9,1.26,1,1.12-.5,1.84-1,2.7l.18.39c2.28-1.44,4.57-2.87,6.8-4.36.32-.22.38-.81.57-1.23a3.88,3.88,0,0,0-1.25-.51c-2.9-.14-5.56.84-8.2,1.75" transform="translate(-67.92 -63.68)"/><path class="cls-4" d="M335.83,170.1c-.3-.29-1.1-.23-1.63-.12a5,5,0,0,0-1.76.76c-2.13,1.5-4.23,3-6.34,4.59l-1,.73V154.44c.64.54,1.1,1,1.61,1.37,2.17,1.59,4.33,3.18,6.53,4.71a1.33,1.33,0,0,0,1.2,0c.19-.11.21-.75.11-1.09a15.49,15.49,0,0,0-.94-2.6,29.73,29.73,0,0,0-2.88-5.41,5.23,5.23,0,0,1-.88-3.61c0-5,0-9.9,0-14.85a1.62,1.62,0,0,0-.9-1.62,64.38,64.38,0,0,0-15.28-6.75c-6.56-1.87-13.21-2.82-20-1.26s-11.25,5.48-12.75,12.43a27.75,27.75,0,0,0-.11,9.83,53.54,53.54,0,0,0,3,11.34l4.11-1.92a34.84,34.84,0,0,0-.9,3.86c-.37,3.18-.64,6.37-.9,9.56,0,.32.29.66.45,1,.32-.21.76-.35.93-.65q1.43-2.58,2.74-5.22c.48-1,.87-2,1.43-3.27,2.09,6.36,4.08,12.39,6.12,18.57a38.16,38.16,0,0,0-4.1-2.28,3.22,3.22,0,0,0-2.56-.06c-.89.62-.4,1.79,0,2.65a10.52,10.52,0,0,0,7.87,6.13,7.13,7.13,0,0,0,8.47-4.53,15.9,15.9,0,0,0,.87-8.42c-.2-1.3-1.18-1.84-2.27-1.15a8.55,8.55,0,0,0-2.1,2.1,15.49,15.49,0,0,0-1.18,2.44,7.32,7.32,0,0,1-1.94-1.15,18.5,18.5,0,0,1-3.05-4.11c-1.65-3.56-.31-6.54,3.34-8,1.07-.41,2.21-.64,3.38-1-.22-.46-.47-.87-.64-1.32-.67-1.84-1.45-3.65-1.94-5.54a3.9,3.9,0,0,1,1.33-4.25,4.84,4.84,0,0,1,8,2.57,6.36,6.36,0,0,1,.25,1.3c.12,1.87.22,3.74.32,5.64a42.44,42.44,0,0,1,4-1.5c2.73-.76,4.82.27,5.77,2.94a18.16,18.16,0,0,1,1,4.57c.16,1.76,0,3.54,0,5.31-2-1.06-3.72-2.16-5.6-2.94-2-.85-3.1.06-3.36,2.28-.53,4.58,5.31,11.32,12.29,10.25,5.1-.79,8.18-4.49,10.08-9.12a1.85,1.85,0,0,0-.21-1.65m-32.51-31.4c-.33.12-.67.22-1,.32-2.05-4.33-4.85-4-8.08-2.65a55.43,55.43,0,0,0-5,2.68l-1.53-1.81c3.29-2.4,6.6-4.45,10.79-4.25a6.83,6.83,0,0,1,6,5.21l-1.19.5m18-2.34c-2.36-1-4.59-2.14-6.92-3a20.63,20.63,0,0,0-4.58-.89,1.41,1.41,0,0,0-1.66,1.71c.23,1.69.64,3.36,1,5.24l-2.07.86a13.28,13.28,0,0,1-1.52-6.39,3.94,3.94,0,0,1,4.35-4,12.54,12.54,0,0,1,4.13.67c2.86,1,5.63,2.27,8.59,3.49l-1.33,2.29" transform="translate(-67.92 -63.68)"/><path class="cls-4" d="M334.16,183.86h10.63l-5.32-10.66-5.31,10.66" transform="translate(-67.92 -63.68)"/><path class="cls-4" d="M301.48,189.68a1.08,1.08,0,0,1,.19.65,1.07,1.07,0,0,1-.2.65.69.69,0,0,1-.58.31.68.68,0,0,1-.58-.31,1.21,1.21,0,0,1,0-1.3.72.72,0,0,1,1.17,0Zm1.73,4.55a.68.68,0,0,0,.57-.32,1,1,0,0,0,.21-.64,1.09,1.09,0,0,0-.2-.65.72.72,0,0,0-1.17,0,1.13,1.13,0,0,0-.19.65,1.09,1.09,0,0,0,.2.65A.69.69,0,0,0,303.21,194.23Zm-2.32,3.06a.69.69,0,0,0,.58-.31,1.07,1.07,0,0,0,.2-.65,1.08,1.08,0,0,0-.19-.65.72.72,0,0,0-1.17,0,1.21,1.21,0,0,0,0,1.3A.68.68,0,0,0,300.89,197.29Zm74.88-5a.68.68,0,0,0-.58.3,1.07,1.07,0,0,0-.2.65,1.09,1.09,0,0,0,.2.65.7.7,0,0,0,.58.31.68.68,0,0,0,.57-.32,1,1,0,0,0,.21-.64,1.09,1.09,0,0,0-.2-.65A.68.68,0,0,0,375.77,192.32Zm2.56-2.94a.68.68,0,0,0-.58.3,1.21,1.21,0,0,0,0,1.3.68.68,0,0,0,.58.31.7.7,0,0,0,.58-.31,1.14,1.14,0,0,0,.2-.65,1,1,0,0,0-.2-.65A.68.68,0,0,0,378.33,189.38Zm-28.44,2.94a.69.69,0,0,0-.58.3,1.06,1.06,0,0,0-.19.65,1.08,1.08,0,0,0,.19.65.69.69,0,0,0,1.16,0,1,1,0,0,0,.2-.64,1.08,1.08,0,0,0-.19-.65A.7.7,0,0,0,349.89,192.32Zm28.44,3.06a.68.68,0,0,0-.58.3,1.21,1.21,0,0,0,0,1.3.68.68,0,0,0,.58.31.7.7,0,0,0,.58-.31,1.14,1.14,0,0,0,.2-.65,1,1,0,0,0-.2-.65A.68.68,0,0,0,378.33,195.38Zm-26,0a.68.68,0,0,0-.58.3,1.21,1.21,0,0,0,0,1.3.68.68,0,0,0,.58.31.7.7,0,0,0,.58-.31,1.14,1.14,0,0,0,.2-.65,1,1,0,0,0-.2-.65A.68.68,0,0,0,352.33,195.38Zm21-6a.68.68,0,0,0-.58.3,1.21,1.21,0,0,0,0,1.3.68.68,0,0,0,.58.31.7.7,0,0,0,.58-.31,1.14,1.14,0,0,0,.2-.65,1,1,0,0,0-.2-.65A.68.68,0,0,0,373.33,189.38Zm-46,7.91a.7.7,0,0,0,.58-.31,1.14,1.14,0,0,0,.2-.65,1,1,0,0,0-.2-.65.71.71,0,0,0-1.16,0,1.21,1.21,0,0,0,0,1.3A.68.68,0,0,0,327.33,197.29Zm1.86-4.67a1.07,1.07,0,0,0-.2.65,1.09,1.09,0,0,0,.2.65.7.7,0,0,0,.58.31.68.68,0,0,0,.57-.32,1,1,0,0,0,.21-.64,1.09,1.09,0,0,0-.2-.65.71.71,0,0,0-1.16,0Zm-1.86-3.24a.68.68,0,0,0-.58.3,1.21,1.21,0,0,0,0,1.3.68.68,0,0,0,.58.31.7.7,0,0,0,.58-.31,1.14,1.14,0,0,0,.2-.65,1,1,0,0,0-.2-.65A.68.68,0,0,0,327.33,189.38Zm20.13,7.91A.67.67,0,0,0,348,197a1.07,1.07,0,0,0,.21-.65,1.09,1.09,0,0,0-.2-.65.69.69,0,0,0-.58-.3.67.67,0,0,0-.58.3,1.16,1.16,0,0,0,0,1.3A.66.66,0,0,0,347.46,197.29Zm-15.38-7.91a.68.68,0,0,0-.58.3,1.21,1.21,0,0,0,0,1.3.68.68,0,0,0,.58.31.7.7,0,0,0,.58-.31,1.14,1.14,0,0,0,.2-.65,1,1,0,0,0-.2-.65A.68.68,0,0,0,332.08,189.38Zm20.25,0a.68.68,0,0,0-.58.3,1.21,1.21,0,0,0,0,1.3.68.68,0,0,0,.58.31.7.7,0,0,0,.58-.31,1.14,1.14,0,0,0,.2-.65,1,1,0,0,0-.2-.65A.68.68,0,0,0,352.33,189.38ZM417.66,114v90.27l-78.18,45.13L261.3,204.24V114l78.18-45.14ZM332.49,86.79a.41.41,0,0,0,.13.33l.74.72a.45.45,0,0,0,.32.12.45.45,0,0,0,.31-.12,8.1,8.1,0,0,1,2.57-1.6,8.3,8.3,0,0,1,2.87-.58,8.55,8.55,0,0,1,2.89.48,8.1,8.1,0,0,1,2.62,1.52.4.4,0,0,0,.31.11.43.43,0,0,0,.32-.14l.71-.74a.39.39,0,0,0,.13-.33.41.41,0,0,0-.16-.33,9.87,9.87,0,0,0-3.18-1.89,10.41,10.41,0,0,0-7.32.13,9.88,9.88,0,0,0-3.12,2h0A.43.43,0,0,0,332.49,86.79Zm11.2,2.07a6.6,6.6,0,0,0-2-1.11,6.53,6.53,0,0,0-2.24-.36,6.32,6.32,0,0,0-2.23.44,6.45,6.45,0,0,0-2,1.17l0,0a.46.46,0,0,0,0,.65l.7.67a.45.45,0,0,0,.61,0,4.6,4.6,0,0,1,5.85-.1.48.48,0,0,0,.32.11.47.47,0,0,0,.3-.14l.67-.7a.43.43,0,0,0,.13-.35A.47.47,0,0,0,343.69,88.86ZM327.83,108.5h8.55V101h6.29v7.53h8.5c-.76-3.41-2.44-6.19-5.45-7.68A8.76,8.76,0,0,1,341.45,96c-.4-.92-.91-1.79-1.35-2.7a1,1,0,0,0-.07-.16,1.32,1.32,0,0,0,.5-.33,1.37,1.37,0,0,0,.39-1,1.34,1.34,0,0,0-.43-1,1.37,1.37,0,0,0-1-.39,1.34,1.34,0,0,0-1,.43,1.37,1.37,0,0,0-.39,1,1.34,1.34,0,0,0,.43,1,1.32,1.32,0,0,0,.38.25c-.94,1.9-1.87,3.75-2.75,5.37a3.52,3.52,0,0,1-1.46,1.4,12.19,12.19,0,0,0-6.55,7A14.72,14.72,0,0,0,327.83,108.5Zm-43.15,70a2.54,2.54,0,0,0,1.58-2.7,4.17,4.17,0,0,0-2-3.65,1.92,1.92,0,0,0-2.89.94,4.05,4.05,0,0,0,.55,4.1A2.46,2.46,0,0,0,284.68,178.54Zm110.65,26.32a6,6,0,0,0-6.19-4.53q-24.86,0-49.73,0H321.06q-15.69,0-31.39,0a6,6,0,0,0-5.93,4.08,5.9,5.9,0,0,0,5.88,7.69c2,0,4-.61,6-.85,6-.69,12-1.6,18.08-1.94,8.76-.5,17.53-.79,26.29-.78s17.78.34,26.66.84c5.44.31,10.85,1.17,16.27,1.83a56.55,56.55,0,0,0,6.28.91A5.92,5.92,0,0,0,395.33,204.86Zm-105.39-9.17a1.12,1.12,0,0,0,1.23,1.3h2.77c1,0,1.92,0,2.89,0a1.11,1.11,0,0,0,1.16-1.25,1.07,1.07,0,0,0-1.17-1.21c-1.89,0-3.78,0-5.66,0A1.08,1.08,0,0,0,289.94,195.69Zm1.15-2.75h5.66a1.09,1.09,0,0,0,1.24-1.16,1.13,1.13,0,0,0-1.21-1.32c-1.89,0-3.78,0-5.67,0a1.1,1.1,0,0,0-1.17,1.23C289.93,192.44,290.27,192.94,291.09,192.94Zm11.16-2.61a1.59,1.59,0,0,0-.37-1.06,1.27,1.27,0,0,0-2,0,1.59,1.59,0,0,0-.36,1.05,1.64,1.64,0,0,0,.36,1.06,1.22,1.22,0,0,0,1,.48,1.21,1.21,0,0,0,1-.48A1.59,1.59,0,0,0,302.25,190.33Zm0,1.88a1.7,1.7,0,0,0,0,2.12,1.28,1.28,0,0,0,2,0,1.74,1.74,0,0,0,0-2.12,1.28,1.28,0,0,0-2,0Zm-2.68,4.12a1.64,1.64,0,0,0,.36,1.06,1.22,1.22,0,0,0,1,.48,1.21,1.21,0,0,0,1-.48,1.7,1.7,0,0,0,0-2.12,1.27,1.27,0,0,0-2,0A1.59,1.59,0,0,0,299.54,196.33Zm5.18-6.86a.25.25,0,0,1,0,.08v.09s0,0,.05,0a.58.58,0,0,0,.19,0l.18,0s0,0,0,.06c0,.52,0,.92,0,1.2,0,.56,0,.86,0,.89s0,.07.08.07h.46c.05,0,.08,0,.08-.1s0-.36,0-.65v-.64c0-.68,0-1.16,0-1.45a.11.11,0,0,0,0-.05,0,0,0,0,0,0,0l-.22,0-.2,0-.12.12-.14.14a.87.87,0,0,1-.3.2s-.05,0-.05.06v.08A.25.25,0,0,1,304.72,189.47Zm0,6a.25.25,0,0,1,0,.08v.09s0,0,.05,0a.58.58,0,0,0,.19,0l.18,0s0,0,0,.06c0,.52,0,.92,0,1.2,0,.56,0,.86,0,.89s0,.07.08.07h.46c.05,0,.08,0,.08-.1s0-.36,0-.65v-.64c0-.68,0-1.16,0-1.45a.11.11,0,0,0,0-.05,0,0,0,0,0,0,0l-.22,0-.2,0-.12.12-.14.14a.87.87,0,0,1-.3.2s-.05,0-.05.06v.08A.25.25,0,0,1,304.72,195.47Zm4.42,0a2.22,2.22,0,0,0,2.44,1.72c1.33,0,2.65,0,4,0h3.73a2.7,2.7,0,0,0,3-2.32c.72-2.79-.71-4.66-3.55-4.66-2.37,0-4.74,0-7.11,0a2.33,2.33,0,0,0-2.58,1.88A8.79,8.79,0,0,0,309.14,195.5Zm23.08.91c0-.68,0-1.16,0-1.45a.11.11,0,0,0,0-.05,0,0,0,0,0,0,0l-.22,0-.2,0-.12.12-.14.14a.87.87,0,0,1-.3.2s-.05,0-.05.06v.08a.32.32,0,0,1,0,.16v.09s0,0,.05,0a.58.58,0,0,0,.19,0l.18,0s0,0,0,.06c0,.52,0,.92,0,1.2,0,.56,0,.86,0,.89s0,.07.08.07h.46c.05,0,.08,0,.08-.1s0-.36,0-.65Zm.85-5a1.7,1.7,0,0,0,0-2.12,1.24,1.24,0,0,0-1-.47,1.22,1.22,0,0,0-1,.48,1.59,1.59,0,0,0-.36,1.05,1.64,1.64,0,0,0,.36,1.06,1.26,1.26,0,0,0,2,0Zm-3.3.35a1.24,1.24,0,0,0-1,.47,1.7,1.7,0,0,0,0,2.12,1.28,1.28,0,0,0,2,0,1.74,1.74,0,0,0,0-2.12A1.24,1.24,0,0,0,329.77,191.74Zm-1.08-1.41a1.65,1.65,0,0,0-.37-1.06,1.24,1.24,0,0,0-1-.47,1.22,1.22,0,0,0-1,.48,1.59,1.59,0,0,0-.36,1.05,1.64,1.64,0,0,0,.36,1.06,1.26,1.26,0,0,0,2,0A1.65,1.65,0,0,0,328.69,190.33Zm-2.71,6a1.64,1.64,0,0,0,.36,1.06,1.26,1.26,0,0,0,2,0,1.7,1.7,0,0,0,0-2.12,1.24,1.24,0,0,0-1-.47,1.22,1.22,0,0,0-1,.48A1.59,1.59,0,0,0,326,196.33Zm17.72-5.6h-8.94a4.94,4.94,0,0,0,4.93,2.34A4.4,4.4,0,0,0,343.7,190.73ZM341.77,195a55.14,55.14,0,0,0-5.75,0c-.38,0-.73.62-1.1,1,.36.29.7.77,1.1.82a22.86,22.86,0,0,0,2.87,0,21.25,21.25,0,0,0,2.88,0c.42-.06.78-.57,1.17-.88C342.55,195.56,342.18,195,341.77,195Zm4.76-5.51v.08a.34.34,0,0,0,0,.09s0,0,.06,0a.54.54,0,0,0,.18,0l.19,0s0,0,0,.06c0,.52,0,.92,0,1.2,0,.56,0,.86,0,.89s0,.07.07.07h.46c.05,0,.08,0,.08-.1v-.65c0-.28,0-.5,0-.64a12,12,0,0,1,.06-1.45v-.05a0,0,0,0,0,0,0l-.21,0-.21,0-.12.12-.13.14a1.11,1.11,0,0,1-.3.2s-.06,0-.06.06a.32.32,0,0,0,0,.08Zm-.06,5.81a1.55,1.55,0,0,0-.37,1.05,1.59,1.59,0,0,0,.37,1.06,1.21,1.21,0,0,0,1,.48,1.22,1.22,0,0,0,1-.48,1.74,1.74,0,0,0,0-2.12,1.24,1.24,0,0,0-1-.47A1.21,1.21,0,0,0,346.47,195.28Zm7.22-4.95a1.65,1.65,0,0,0-.37-1.06,1.24,1.24,0,0,0-1-.47,1.22,1.22,0,0,0-1,.48,1.59,1.59,0,0,0-.36,1.05,1.64,1.64,0,0,0,.36,1.06,1.26,1.26,0,0,0,2,0A1.65,1.65,0,0,0,353.69,190.33Zm-.37,4.94a1.24,1.24,0,0,0-1-.47,1.22,1.22,0,0,0-1,.48,1.59,1.59,0,0,0-.36,1.05,1.64,1.64,0,0,0,.36,1.06,1.26,1.26,0,0,0,2,0,1.7,1.7,0,0,0,0-2.12Zm-2.44-3.06a1.28,1.28,0,0,0-2,0,1.74,1.74,0,0,0,0,2.12,1.28,1.28,0,0,0,2,0,1.7,1.7,0,0,0,0-2.12Zm5.69,3.62a2.32,2.32,0,0,0,2.21,1.39h7.83a2.69,2.69,0,0,0,3-2.31c.73-2.78-.7-4.67-3.54-4.67-2.37,0-4.74,0-7.11,0a2.49,2.49,0,0,0-2.62,1.87A4.62,4.62,0,0,0,356.57,195.83Zm23.12-5.5a1.65,1.65,0,0,0-.37-1.06,1.24,1.24,0,0,0-1-.47,1.22,1.22,0,0,0-1,.48,1.59,1.59,0,0,0-.36,1.05,1.64,1.64,0,0,0,.36,1.06,1.26,1.26,0,0,0,2,0A1.65,1.65,0,0,0,379.69,190.33Zm-.37,4.94a1.24,1.24,0,0,0-1-.47,1.22,1.22,0,0,0-1,.48,1.59,1.59,0,0,0-.36,1.05,1.64,1.64,0,0,0,.36,1.06,1.26,1.26,0,0,0,2,0,1.7,1.7,0,0,0,0-2.12Zm-2.56-3.06a1.28,1.28,0,0,0-2,0,1.7,1.7,0,0,0,0,2.12,1.28,1.28,0,0,0,2,0,1.74,1.74,0,0,0,0-2.12Zm-2.07-1.88a1.65,1.65,0,0,0-.37-1.06,1.24,1.24,0,0,0-1-.47,1.22,1.22,0,0,0-1,.48,1.59,1.59,0,0,0-.36,1.05,1.64,1.64,0,0,0,.36,1.06,1.26,1.26,0,0,0,2,0A1.65,1.65,0,0,0,374.69,190.33Zm-1.41,6.08a12,12,0,0,1,.06-1.45v-.05a0,0,0,0,0,0,0l-.21,0-.21,0-.12.12-.13.14a1.11,1.11,0,0,1-.3.2s-.06,0-.06.06a.32.32,0,0,0,0,.08v.16a.34.34,0,0,0,0,.09s0,0,.06,0a.54.54,0,0,0,.18,0l.19,0s0,0,0,.06c0,.52,0,.92,0,1.2,0,.56,0,.86,0,.89s0,.07.07.07h.46c.05,0,.08,0,.08-.1v-.65C373.28,196.77,373.28,196.55,373.28,196.41Zm7.7-.72c0,.73.3,1.28,1.11,1.29,1.93,0,3.86,0,5.78,0a1.1,1.1,0,0,0,1.16-1.25,1.07,1.07,0,0,0-1.18-1.21h-2.77c-1,0-1.93,0-2.89,0A1.07,1.07,0,0,0,381,195.69Zm1.26-2.74H385c.92,0,1.85,0,2.77,0A1.1,1.1,0,0,0,389,191.8a1.14,1.14,0,0,0-1.21-1.33c-1.89,0-3.78,0-5.66,0a1.24,1.24,0,0,0,.08,2.48Zm15.59-18.3c0-2.18-1.54-3.39-3.19-2.47a4.39,4.39,0,0,0-1.68,5.18,2,2,0,0,0,2.9.94A4.17,4.17,0,0,0,397.83,174.65Zm12.49-29a5.9,5.9,0,0,0-2.27-2c-1.51-.76-3-.26-4.51.66.1-1.23.18-2.31.27-3.39,3.1.92,5,.42,6.2-1.6a4.31,4.31,0,0,0-.59-5.23,5.7,5.7,0,0,0-2.36-1.32A4.39,4.39,0,0,0,403,134l-.43-1.6c3.24-.76,4.62-2,4.81-4.34a4.5,4.5,0,0,0-2.72-4.32c-2-.86-3.78-.28-5.68,1.91l-1.77-1.93c2.35-2,3-3.69,2.19-5.73a4.51,4.51,0,0,0-4.25-2.83c-2.23.09-3.59,1.43-4.41,4.42l-3.05-1.06c1.68-2.42,1.79-4.25.41-6a4.24,4.24,0,0,0-5.08-1.34,6.14,6.14,0,0,0-2.15,1.84c-1,1.28-.69,2.79-.29,4.24h-3.05c1.61-2.79,1.4-5-.55-6.57a4.32,4.32,0,0,0-5.72.28,6.11,6.11,0,0,0-1.35,2.73c-.35,1.6.49,2.91,1.75,4.13l-3.59.6c.5-2.67-.34-4.57-2.34-5.52a4.34,4.34,0,0,0-5.24,1.14c-1.52,1.79-1.38,3.65.49,6.38l-2.25.79c-.42-2.24-1.61-3.65-3.75-4a4.06,4.06,0,0,0-4.15,1.65c-1.49,2-1.17,4,.28,5.9l-2.09,1c0-2.33,0-4.46,0-6.58a5,5,0,0,1,.5-1.79c.55-1.3,1.17-2.57,1.81-4H328c-.17,2.32,2,3.7,1.95,5.92s0,4.15,0,6.41l-2-1c1.81-2.89,1.46-5.65-1-6.92a5.68,5.68,0,0,0-3.2-.51c-2.12.3-3.06,2-3.57,3.91l-2.22-.81c1.81-2.21,2.07-4,.89-5.88a4.19,4.19,0,0,0-4.81-1.86,6.33,6.33,0,0,0-2.36,1.56c-1.12,1.16-1,2.7-.77,4.25l-3.43-.65c2.05-2.59,2.2-4.79.54-6.61a4.25,4.25,0,0,0-5.58-.75,5.58,5.58,0,0,0-1.86,2.41,4.29,4.29,0,0,0,1,4.46h-3.24c.69-3,.11-4.81-1.86-5.92a4.35,4.35,0,0,0-5.32.76c-1.6,1.63-1.61,3.52,0,6.41l-2.94,1c-.84-3-2.16-4.3-4.38-4.43a4.45,4.45,0,0,0-4.27,2.78c-.83,2-.23,3.68,2.15,5.8L280,125.61c-1.91-2.17-3.63-2.74-5.64-1.9a4.17,4.17,0,0,0-2.65,4.42,4,4,0,0,0,1,2.38,24.43,24.43,0,0,0,3.67,2.21c-.05.18-.19.67-.34,1.18-2.65-1.61-4.65-1.6-6.31,0a4.38,4.38,0,0,0-.77,5.32c1.15,2.06,2.95,2.54,6.37,1.69v3.22c-3-1.29-5.22-.85-6.53,1.27a4.36,4.36,0,0,0,1,5.75c1.89,1.55,4.15,1.23,6.63-1l.71,3-.38.14c-2.5.9-3.68,2.68-3.32,5s2,3.53,4.64,3.71a1.46,1.46,0,0,1,1,.78c.88,2.06,1.65,4.18,2.55,6.24a2.4,2.4,0,0,0,1.15.93,22.89,22.89,0,0,1,3.88,1.78c2.28,1.7,2.9,5,1,6.93-1.64,1.7-1.22,3.05-.4,4.69.12.25.2.52.31.78.47,1.11.66,2.65,1.49,3.2s2.4.24,3.63.24q48.12,0,96.23,0c1,0,1.51-.21,1.83-1.2a42.17,42.17,0,0,1,1.87-4.7,1.57,1.57,0,0,0-.41-2.14,5,5,0,0,1,.13-7.56,12,12,0,0,1,4-2,1.69,1.69,0,0,0,1.31-1.13c.75-2,1.6-3.94,2.33-5.93a1.28,1.28,0,0,1,1.46-1,4.37,4.37,0,0,0,4.32-3.66,4.45,4.45,0,0,0-2.69-4.78c-.35-.15-.72-.27-1.09-.41.27-1,.51-2,.76-3,2.29,2.21,4.53,2.58,6.48,1.13A4.24,4.24,0,0,0,410.32,145.68Z" transform="translate(-67.92 -63.68)"/><path class="cls-4" d="M385.55,123.41a32.87,32.87,0,0,0-12.46-.47,60.72,60.72,0,0,0-22.84,8.25,2.16,2.16,0,0,0-1.27,2.17c.07,5.39,0,10.78,0,16.17a1.92,1.92,0,0,1-.24,1.11,29.23,29.23,0,0,0-4.38,8.73,3.67,3.67,0,0,0,.06,1.27c.45,0,1,.05,1.36-.17,1.49-.95,2.95-1.94,4.36-3,1.21-.91,2.33-1.92,3.62-3V176c-1.65-1.28-3.1-2.55-4.7-3.61a28.38,28.38,0,0,0-4.63-2.51c-1.3-.55-2.08.26-1.6,1.62,1.62,4.54,4.65,7.87,9.32,9.19,5.09,1.45,11.72-2.78,12.9-8a8,8,0,0,0,0-3c-.21-1.45-1.15-2.1-2.51-1.58-1.74.67-3.38,1.63-5.06,2.47-.36.19-.71.43-1.25.75-.13-3.57-.21-6.91,1-10.08,1-2.64,3.07-3.64,5.82-2.88a27.82,27.82,0,0,1,3.13,1.23c.31.12.62.27,1,.45a13.12,13.12,0,0,1-.12-2.08,48.36,48.36,0,0,1,.86-6,3.41,3.41,0,0,1,3.15-2.62c3.43-.3,6.92,1.08,5.56,6.26a61.67,61.67,0,0,1-2.17,5.83,42.49,42.49,0,0,1,4.44,1.67,4.61,4.61,0,0,1,2.74,4.72,9.23,9.23,0,0,1-4.64,7.35,3.94,3.94,0,0,1-.84.31,32.54,32.54,0,0,0-2.67-3.86,2.4,2.4,0,0,0-2.12-.56c-.5.18-.95,1.19-1,1.85a31.14,31.14,0,0,0,.22,5.29c.57,4,3,6.66,6.35,7.08a10.57,10.57,0,0,0,10.67-6.12c.37-.86,1-1.88.15-2.71s-1.92-.37-2.81.08c-1.28.64-2.49,1.42-4,2.27,2.08-6.21,4.09-12.25,6.18-18.53,1.64,3.3,2.46,6.7,4.82,9.24l.63-.21c.54-4.85-.62-9.54-1.75-14.37l4,1.92c2.14-4.32,3.83-13.72,3.36-18.44-.82-8.1-5.13-13.18-12.85-15.08M373,135.52c-.3,1.6-.81,3.15-1.26,4.87l-2.41-1c.34-1.14.7-2.19.95-3.28a9.05,9.05,0,0,0,.2-2c0-1-.54-1.66-1.54-1.57a22.87,22.87,0,0,0-4.12.69,25.12,25.12,0,0,0-3.8,1.48c-1.2.53-2.36,1.16-3.64,1.79l-1.25-2.16c3.74-2.09,7.45-4,11.69-4.41,3.66-.38,5.86,2,5.18,5.62m16.4,3.59a43.29,43.29,0,0,0-4-2.32,14.5,14.5,0,0,0-4-1.22c-2.55-.34-4,1.16-4.94,3.52l-2.23-.84A6.79,6.79,0,0,1,382,133a18.87,18.87,0,0,1,8.92,4.23l-1.52,1.86" transform="translate(-67.92 -63.68)"/><path class="cls-4" d="M301.6,202.29c-3-.2-5.69.81-8.59,1.83,4.06,1.16,4.15,1.34,2.33,4,1.17-.58,2.39-1.1,3.51-1.77a37,37,0,0,0,3.4-2.44c.26-.21.53-.81.41-1a1.45,1.45,0,0,0-1.06-.58" transform="translate(-67.92 -63.68)"/><path class="cls-4" d="M361.84,183.86h7.43c-.81-2.45-1.6-4.82-2.48-7.44l-5,7.44" transform="translate(-67.92 -63.68)"/><polygon class="cls-3" points="271.77 0.13 271.77 2.92 351.78 49.11 351.78 141.74 271.77 187.93 271.77 190.72 354.2 143.14 354.2 47.71 271.77 0.13"/><path class="cls-3" d="M349,203.65a11.78,11.78,0,0,1,1.34.27c.67.27,1.32.59,2,.89-.3.58-.61,1.15-1.08,2.07,2.34-1.11,4.5-2.12,6.63-3.19.32-.16.48-.65.71-1a3.08,3.08,0,0,0-1-.42,26.77,26.77,0,0,0-8.54,1.37" transform="translate(-67.92 -63.68)"/><path class="cls-3" d="M339.69,160.31v2.39a2.46,2.46,0,0,1,2.22,2.42,2.55,2.55,0,0,1-2.22,2.37v2.38a4.88,4.88,0,0,0,4.59-4.79,4.83,4.83,0,0,0-4.59-4.77" transform="translate(-67.92 -63.68)"/><path class="cls-3" d="M340.15,140.83c1.81-.58,3-1.6,3.24-3.46a4.08,4.08,0,0,0-2.07-4.13c2.52-2.12,2.73-3.83,1-6.61,1.58-2.31,1.52-4.41-.18-5.93a3.92,3.92,0,0,0-2.41-1v29.16a4.06,4.06,0,0,0,3.65-3c.52-2.16-.45-3.75-3.19-5.07" transform="translate(-67.92 -63.68)"/><path class="cls-3" d="M377.13,204c1,.41,2.29.55,2.9,1.26,1,1.12-.5,1.84-1,2.7.06.13.12.26.19.39,2.27-1.44,4.56-2.86,6.79-4.36.32-.22.38-.81.57-1.23a4.12,4.12,0,0,0-1.25-.51c-2.9-.14-5.56.84-8.2,1.75" transform="translate(-67.92 -63.68)"/><path class="cls-3" d="M339.69,173.65v10.21h5.1l-5.1-10.21" transform="translate(-67.92 -63.68)"/><path class="cls-3" d="M348,195.68a1.09,1.09,0,0,1,.2.65,1.07,1.07,0,0,1-.21.65.67.67,0,0,1-.57.31.66.66,0,0,1-.58-.31,1.16,1.16,0,0,1,0-1.3.67.67,0,0,1,.58-.3A.69.69,0,0,1,348,195.68ZM417.66,114v90.27l-78,45V208.54H340c8.88,0,17.77.35,26.65.85,5.44.3,10.85,1.17,16.27,1.83a59,59,0,0,0,6.28.9,5.91,5.91,0,0,0,6.1-7.25,6,6,0,0,0-6.18-4.53q-24.73,0-49.46,0v-3.52a13.08,13.08,0,0,0,2.08-.06c.42-.06.78-.57,1.17-.88-.39-.31-.76-.87-1.16-.89-.7,0-1.39,0-2.09-.06v-1.85a4.39,4.39,0,0,0,4-2.34h-4v-3.15l49.09,0c1,0,1.51-.21,1.83-1.2a44.2,44.2,0,0,1,1.87-4.7,1.56,1.56,0,0,0-.41-2.14,5,5,0,0,1,.13-7.56,11.75,11.75,0,0,1,4-1.95,1.72,1.72,0,0,0,1.31-1.14c.75-2,1.6-3.94,2.34-5.93a1.27,1.27,0,0,1,1.45-1,4.36,4.36,0,0,0,4.32-3.66,4.45,4.45,0,0,0-2.69-4.78l-1.08-.41.75-3c2.29,2.21,4.53,2.58,6.48,1.13a4.25,4.25,0,0,0,1.21-5.59,6,6,0,0,0-2.28-2c-1.51-.76-3-.26-4.51.66.1-1.23.18-2.31.27-3.39,3.1.92,5,.42,6.2-1.6a4.3,4.3,0,0,0-.59-5.23,5.7,5.7,0,0,0-2.36-1.32A4.42,4.42,0,0,0,403,134l-.43-1.6c3.24-.76,4.62-2,4.81-4.34a4.5,4.5,0,0,0-2.72-4.32c-2-.86-3.78-.28-5.68,1.91l-1.77-1.93c2.35-2,3-3.69,2.19-5.73a4.51,4.51,0,0,0-4.25-2.83c-2.23.09-3.59,1.43-4.41,4.42l-3.05-1.06c1.68-2.42,1.79-4.25.41-6a4.23,4.23,0,0,0-5.08-1.35,6.14,6.14,0,0,0-2.15,1.84c-1,1.28-.69,2.8-.29,4.24h-3.05c1.61-2.79,1.4-5-.55-6.56a4.31,4.31,0,0,0-5.72.27,6,6,0,0,0-1.34,2.73c-.36,1.61.48,2.92,1.74,4.13l-3.59.6c.5-2.67-.34-4.57-2.34-5.52a4.33,4.33,0,0,0-5.24,1.15c-1.51,1.78-1.38,3.65.49,6.37l-2.25.79c-.42-2.24-1.61-3.65-3.75-4a4.07,4.07,0,0,0-4.15,1.65c-1.49,2-1.17,4,.28,5.9l-2.09,1c0-2.33,0-4.45,0-6.58a5.27,5.27,0,0,1,.5-1.79c.55-1.3,1.17-2.57,1.81-4H339.69V101h3v7.52h8.5c-.76-3.41-2.44-6.19-5.44-7.68A8.71,8.71,0,0,1,341.45,96c-.4-.92-.9-1.79-1.34-2.69,0-.06-.05-.12-.07-.17a1.4,1.4,0,0,0,.88-1.31,1.34,1.34,0,0,0-.43-1,1.28,1.28,0,0,0-.75-.35V89.28a4.52,4.52,0,0,1,2.7,1,.48.48,0,0,0,.32.11.47.47,0,0,0,.3-.14l.67-.7a.43.43,0,0,0,.13-.35.47.47,0,0,0-.16-.33,6.6,6.6,0,0,0-2-1.11,6.06,6.06,0,0,0-2-.34V85.67a8.56,8.56,0,0,1,2.61.47,8.1,8.1,0,0,1,2.62,1.52.4.4,0,0,0,.31.11.43.43,0,0,0,.32-.14l.71-.74a.39.39,0,0,0,.13-.33.41.41,0,0,0-.16-.33,9.87,9.87,0,0,0-3.18-1.89,10.24,10.24,0,0,0-3.38-.6V69Zm-71.13,75.5v.08a.34.34,0,0,0,0,.09s0,0,.06,0a.54.54,0,0,0,.18,0l.19,0s0,0,0,.06c0,.52,0,.92,0,1.2,0,.56,0,.86,0,.89s0,.07.07.07h.46c.05,0,.08,0,.08-.1v-.65c0-.28,0-.5,0-.64a12,12,0,0,1,.06-1.45v-.05a0,0,0,0,0,0,0l-.21,0-.21,0-.12.12-.13.14a1.11,1.11,0,0,1-.3.2s-.06,0-.06.06a.32.32,0,0,0,0,.08Zm2.28,6.86a1.64,1.64,0,0,0-.36-1.06,1.24,1.24,0,0,0-1-.47,1.21,1.21,0,0,0-1,.48,1.55,1.55,0,0,0-.37,1.05,1.59,1.59,0,0,0,.37,1.06,1.21,1.21,0,0,0,1,.48,1.22,1.22,0,0,0,1-.48A1.64,1.64,0,0,0,348.81,196.33Zm2.07-2a1.7,1.7,0,0,0,0-2.12,1.28,1.28,0,0,0-2,0,1.74,1.74,0,0,0,0,2.12,1.28,1.28,0,0,0,2,0Zm2.81,2a1.65,1.65,0,0,0-.37-1.06,1.24,1.24,0,0,0-1-.47,1.22,1.22,0,0,0-1,.48,1.59,1.59,0,0,0-.36,1.05,1.64,1.64,0,0,0,.36,1.06,1.26,1.26,0,0,0,2,0A1.65,1.65,0,0,0,353.69,196.33Zm0-6a1.65,1.65,0,0,0-.37-1.06,1.24,1.24,0,0,0-1-.47,1.22,1.22,0,0,0-1,.48,1.59,1.59,0,0,0-.36,1.05,1.64,1.64,0,0,0,.36,1.06,1.26,1.26,0,0,0,2,0A1.65,1.65,0,0,0,353.69,190.33Zm12.41-.09c-2.37,0-4.74,0-7.11,0a2.49,2.49,0,0,0-2.62,1.87,4.62,4.62,0,0,0,.2,3.73,2.32,2.32,0,0,0,2.21,1.39h7.83a2.7,2.7,0,0,0,3-2.31C370.37,192.13,368.94,190.24,366.1,190.24Zm7.24,4.67a0,0,0,0,0,0,0l-.21,0-.21,0-.12.12-.13.14a1.11,1.11,0,0,1-.3.2s-.06,0-.06.06a.32.32,0,0,0,0,.08v.16a.34.34,0,0,0,0,.09s0,0,.06,0a.54.54,0,0,0,.18,0l.19,0s0,0,0,.06c0,.52,0,.92,0,1.2,0,.56,0,.86,0,.89s0,.07.07.07h.46c.05,0,.08,0,.08-.1v-.65c0-.28,0-.5,0-.64a12,12,0,0,1,.06-1.45Zm1-3.52a1.7,1.7,0,0,0,0-2.12,1.24,1.24,0,0,0-1-.47,1.22,1.22,0,0,0-1,.48,1.59,1.59,0,0,0-.36,1.05,1.64,1.64,0,0,0,.36,1.06,1.26,1.26,0,0,0,2,0Zm2.44,2.94a1.74,1.74,0,0,0,0-2.12,1.28,1.28,0,0,0-2,0,1.7,1.7,0,0,0,0,2.12,1.28,1.28,0,0,0,2,0Zm2.93,2a1.65,1.65,0,0,0-.37-1.06,1.24,1.24,0,0,0-1-.47,1.22,1.22,0,0,0-1,.48,1.59,1.59,0,0,0-.36,1.05,1.64,1.64,0,0,0,.36,1.06,1.26,1.26,0,0,0,2,0A1.65,1.65,0,0,0,379.69,196.33Zm0-6a1.65,1.65,0,0,0-.37-1.06,1.24,1.24,0,0,0-1-.47,1.22,1.22,0,0,0-1,.48,1.59,1.59,0,0,0-.36,1.05,1.64,1.64,0,0,0,.36,1.06,1.26,1.26,0,0,0,2,0A1.65,1.65,0,0,0,379.69,190.33Zm9.34,5.4a1.07,1.07,0,0,0-1.18-1.21h-5.66a1.06,1.06,0,0,0-1.21,1.17c0,.73.3,1.28,1.11,1.29,1.93,0,3.86,0,5.78,0A1.1,1.1,0,0,0,389,195.73Zm0-3.93a1.14,1.14,0,0,0-1.21-1.33c-1.89,0-3.77,0-5.66,0a1.24,1.24,0,0,0,.08,2.48h5.54A1.1,1.1,0,0,0,389,191.8Zm8.8-17.15c0-2.18-1.54-3.39-3.19-2.47a4.39,4.39,0,0,0-1.68,5.18,1.94,1.94,0,0,0,2.9.94A4.15,4.15,0,0,0,397.83,174.65Zm-47.94,17.67a.69.69,0,0,0-.58.3,1.06,1.06,0,0,0-.19.65,1.08,1.08,0,0,0,.19.65.69.69,0,0,0,1.16,0,1,1,0,0,0,.2-.64,1.08,1.08,0,0,0-.19-.65A.7.7,0,0,0,349.89,192.32Zm2.44,3.06a.68.68,0,0,0-.58.3,1.21,1.21,0,0,0,0,1.3.68.68,0,0,0,.58.31.7.7,0,0,0,.58-.31,1.14,1.14,0,0,0,.2-.65,1,1,0,0,0-.2-.65A.68.68,0,0,0,352.33,195.38Zm21-6a.68.68,0,0,0-.58.3,1.21,1.21,0,0,0,0,1.3.68.68,0,0,0,.58.31.7.7,0,0,0,.58-.31,1.14,1.14,0,0,0,.2-.65,1,1,0,0,0-.2-.65A.68.68,0,0,0,373.33,189.38Zm5,6a.68.68,0,0,0-.58.3,1.21,1.21,0,0,0,0,1.3.68.68,0,0,0,.58.31.7.7,0,0,0,.58-.31,1.14,1.14,0,0,0,.2-.65,1,1,0,0,0-.2-.65A.68.68,0,0,0,378.33,195.38Zm0-6a.68.68,0,0,0-.58.3,1.21,1.21,0,0,0,0,1.3.68.68,0,0,0,.58.31.7.7,0,0,0,.58-.31,1.14,1.14,0,0,0,.2-.65,1,1,0,0,0-.2-.65A.68.68,0,0,0,378.33,189.38Zm-26,0a.68.68,0,0,0-.58.3,1.21,1.21,0,0,0,0,1.3.68.68,0,0,0,.58.31.7.7,0,0,0,.58-.31,1.14,1.14,0,0,0,.2-.65,1,1,0,0,0-.2-.65A.68.68,0,0,0,352.33,189.38Zm23.44,2.94a.68.68,0,0,0-.58.3,1.07,1.07,0,0,0-.2.65,1.09,1.09,0,0,0,.2.65.7.7,0,0,0,.58.31.68.68,0,0,0,.57-.32,1,1,0,0,0,.21-.64,1.09,1.09,0,0,0-.2-.65A.68.68,0,0,0,375.77,192.32Z" transform="translate(-67.92 -63.68)"/><path class="cls-3" d="M385.55,123.41a33.28,33.28,0,0,0-12.46-.47,60.72,60.72,0,0,0-22.84,8.25,2.19,2.19,0,0,0-1.27,2.17c.07,5.39,0,10.78,0,16.18a1.91,1.91,0,0,1-.24,1.1,29.16,29.16,0,0,0-4.38,8.74,3.62,3.62,0,0,0,.06,1.26c.46,0,1,.05,1.36-.17,1.49-.95,2.95-1.94,4.36-3,1.21-.9,2.33-1.92,3.62-3V176c-1.65-1.28-3.1-2.55-4.69-3.61a28.48,28.48,0,0,0-4.64-2.51c-1.3-.55-2.08.26-1.6,1.62,1.62,4.55,4.65,7.87,9.32,9.2,5.09,1.44,11.72-2.79,12.9-8a8.23,8.23,0,0,0,0-3c-.22-1.45-1.16-2.1-2.52-1.58-1.74.67-3.38,1.63-5.05,2.47-.37.19-.72.43-1.25.75-.14-3.57-.22-6.9,1-10.08,1-2.64,3.07-3.64,5.82-2.88a27.82,27.82,0,0,1,3.13,1.23c.31.12.62.27,1,.45a13.06,13.06,0,0,1-.12-2.07,48.79,48.79,0,0,1,.86-6,3.41,3.41,0,0,1,3.15-2.62c3.43-.29,6.93,1.08,5.56,6.26a61.67,61.67,0,0,1-2.17,5.83,41.38,41.38,0,0,1,4.45,1.68,4.61,4.61,0,0,1,2.74,4.71,9.26,9.26,0,0,1-4.65,7.35,3.31,3.31,0,0,1-.84.31,32.54,32.54,0,0,0-2.67-3.86,2.4,2.4,0,0,0-2.12-.56c-.5.18-.95,1.19-1,1.85a31.14,31.14,0,0,0,.22,5.29c.57,4,3,6.66,6.35,7.08a10.57,10.57,0,0,0,10.67-6.12c.37-.86,1-1.88.15-2.71s-1.92-.37-2.8.08c-1.29.64-2.5,1.42-4,2.27,2.08-6.21,4.09-12.25,6.18-18.53,1.64,3.3,2.46,6.71,4.82,9.24l.63-.21c.54-4.85-.62-9.54-1.75-14.37l4,1.92c2.14-4.32,3.83-13.72,3.36-18.44-.82-8.1-5.13-13.18-12.85-15.08M373,135.52c-.3,1.6-.81,3.15-1.26,4.87l-2.41-1c.34-1.15.7-2.2.95-3.28a9.2,9.2,0,0,0,.2-2c0-1-.54-1.65-1.54-1.57a23.79,23.79,0,0,0-4.12.69,26.22,26.22,0,0,0-3.8,1.48c-1.2.53-2.36,1.16-3.64,1.79l-1.25-2.16c3.74-2.09,7.45-4,11.69-4.41,3.66-.38,5.86,2,5.18,5.62m16.4,3.59a45.66,45.66,0,0,0-4-2.32,14.74,14.74,0,0,0-4-1.22c-2.55-.34-4,1.16-4.94,3.52l-2.23-.83A6.78,6.78,0,0,1,382,133a18.87,18.87,0,0,1,8.92,4.23l-1.52,1.86" transform="translate(-67.92 -63.68)"/><path class="cls-3" d="M361.84,183.87h7.43c-.81-2.45-1.6-4.83-2.48-7.44l-5,7.44" transform="translate(-67.92 -63.68)"/></g></svg>